<mxfile host="app.diagrams.net" agent="Mozilla/5.0 (Windows NT 10.0; Win64; x64) AppleWebKit/537.36 (KHTML, like Gecko) Chrome/130.0.0.0 Safari/537.36" version="24.8.4" pages="3">
  <diagram name="米兰第一天下午" id="LQjCXdNzdlje89dmgtzU">
    <mxGraphModel grid="0" page="1" gridSize="10" guides="1" tooltips="1" connect="1" arrows="1" fold="1" pageScale="1" pageWidth="1169" pageHeight="827" math="0" shadow="0">
      <root>
        <mxCell id="0" />
        <mxCell id="1" parent="0" />
        <mxCell id="x3YmSc0uyKY4Uf8zs8Sl-3" value="" style="edgeStyle=orthogonalEdgeStyle;rounded=0;sketch=1;hachureGap=4;jiggle=2;curveFitting=1;orthogonalLoop=1;jettySize=auto;html=1;fontFamily=Architects Daughter;fontSource=https%3A%2F%2Ffonts.googleapis.com%2Fcss%3Ffamily%3DArchitects%2BDaughter;" edge="1" parent="1" source="x3YmSc0uyKY4Uf8zs8Sl-1" target="x3YmSc0uyKY4Uf8zs8Sl-2">
          <mxGeometry relative="1" as="geometry" />
        </mxCell>
        <mxCell id="x3YmSc0uyKY4Uf8zs8Sl-35" value="&lt;font style=&quot;font-size: 13px;&quot; face=&quot;霞鹜文楷等宽&quot;&gt;出发12:30&lt;/font&gt;&lt;div style=&quot;font-size: 13px;&quot;&gt;&lt;font style=&quot;font-size: 13px;&quot;&gt;&lt;font style=&quot;font-size: 13px;&quot; face=&quot;x5yknhRJr8244Za6tDE2&quot;&gt;🚶‍♂️&lt;/font&gt;&lt;font style=&quot;font-size: 13px;&quot; face=&quot;霞鹜文楷等宽&quot;&gt;9min 650m&lt;/font&gt;&lt;br&gt;&lt;/font&gt;&lt;div style=&quot;&quot;&gt;&lt;font style=&quot;font-size: 13px;&quot; face=&quot;霞鹜文楷等宽&quot;&gt;到达12:42&lt;/font&gt;&lt;/div&gt;&lt;/div&gt;" style="edgeLabel;html=1;align=center;verticalAlign=middle;resizable=0;points=[];sketch=1;hachureGap=4;jiggle=2;curveFitting=1;fontFamily=Architects Daughter;fontSource=https%3A%2F%2Ffonts.googleapis.com%2Fcss%3Ffamily%3DArchitects%2BDaughter;" connectable="0" vertex="1" parent="x3YmSc0uyKY4Uf8zs8Sl-3">
          <mxGeometry x="-0.34" y="-5" relative="1" as="geometry">
            <mxPoint x="17" y="-5" as="offset" />
          </mxGeometry>
        </mxCell>
        <mxCell id="x3YmSc0uyKY4Uf8zs8Sl-1" value="&lt;font face=&quot;霞鹜文楷等宽&quot;&gt;&lt;span style=&quot;font-size: 16px;&quot;&gt;1、{住宿-中央火车站}{Via Giovanni Battista Sammartini}&lt;/span&gt;&lt;/font&gt;" style="rounded=0;whiteSpace=wrap;html=1;sketch=1;hachureGap=4;jiggle=2;curveFitting=1;fontFamily=Architects Daughter;fontSource=https%3A%2F%2Ffonts.googleapis.com%2Fcss%3Ffamily%3DArchitects%2BDaughter;fillColor=#d5e8d4;strokeColor=#82b366;fillStyle=solid;" vertex="1" parent="1">
          <mxGeometry x="30" y="81" width="210" height="60" as="geometry" />
        </mxCell>
        <mxCell id="x3YmSc0uyKY4Uf8zs8Sl-5" value="&lt;br&gt;&lt;font style=&quot;forced-color-adjust: none; color: rgb(0, 0, 0); font-style: normal; font-variant-ligatures: normal; font-variant-caps: normal; font-weight: 400; letter-spacing: normal; orphans: 2; text-align: center; text-indent: 0px; text-transform: none; widows: 2; word-spacing: 0px; -webkit-text-stroke-width: 0px; white-space: nowrap; text-decoration-thickness: initial; text-decoration-style: initial; text-decoration-color: initial; font-size: 13px;&quot; face=&quot;霞鹜文楷等宽&quot;&gt;出发12:45&lt;/font&gt;&lt;div style=&quot;forced-color-adjust: none; color: rgb(0, 0, 0); font-family: &amp;quot;Architects Daughter&amp;quot;; font-style: normal; font-variant-ligatures: normal; font-variant-caps: normal; font-weight: 400; letter-spacing: normal; orphans: 2; text-align: center; text-indent: 0px; text-transform: none; widows: 2; word-spacing: 0px; -webkit-text-stroke-width: 0px; white-space: nowrap; text-decoration-thickness: initial; text-decoration-style: initial; text-decoration-color: initial; font-size: 13px;&quot;&gt;&lt;font style=&quot;forced-color-adjust: none; font-size: 13px;&quot;&gt;&lt;font style=&quot;forced-color-adjust: none; font-size: 13px;&quot; face=&quot;x5yknhRJr8244Za6tDE2&quot;&gt;🚶‍♂️&lt;/font&gt;&lt;font style=&quot;forced-color-adjust: none; font-size: 13px;&quot; face=&quot;霞鹜文楷等宽&quot;&gt;9min 600m&lt;/font&gt;&lt;br style=&quot;forced-color-adjust: none;&quot;&gt;&lt;/font&gt;&lt;div style=&quot;forced-color-adjust: none;&quot;&gt;&lt;font style=&quot;forced-color-adjust: none; font-size: 13px;&quot; face=&quot;霞鹜文楷等宽&quot;&gt;到达12:55&lt;/font&gt;&lt;/div&gt;&lt;/div&gt;&lt;div&gt;&lt;br&gt;&lt;/div&gt;" style="edgeStyle=orthogonalEdgeStyle;rounded=0;sketch=1;hachureGap=4;jiggle=2;curveFitting=1;orthogonalLoop=1;jettySize=auto;html=1;fontFamily=Architects Daughter;fontSource=https%3A%2F%2Ffonts.googleapis.com%2Fcss%3Ffamily%3DArchitects%2BDaughter;labelBackgroundColor=default;" edge="1" parent="1" source="x3YmSc0uyKY4Uf8zs8Sl-2" target="x3YmSc0uyKY4Uf8zs8Sl-4">
          <mxGeometry relative="1" as="geometry" />
        </mxCell>
        <mxCell id="x3YmSc0uyKY4Uf8zs8Sl-2" value="&lt;font face=&quot;霞鹜文楷等宽&quot;&gt;&lt;span style=&quot;font-size: 16px;&quot;&gt;2、{甜品店7点开心果-中央火车站⭐}{Pasticceria Martesana Mercato Centrale}&lt;/span&gt;&lt;/font&gt;" style="rounded=0;whiteSpace=wrap;html=1;sketch=1;hachureGap=4;jiggle=2;curveFitting=1;fontFamily=Architects Daughter;fontSource=https%3A%2F%2Ffonts.googleapis.com%2Fcss%3Ffamily%3DArchitects%2BDaughter;fillColor=#d5e8d4;strokeColor=#82b366;" vertex="1" parent="1">
          <mxGeometry x="340" y="76" width="220" height="70" as="geometry" />
        </mxCell>
        <mxCell id="x3YmSc0uyKY4Uf8zs8Sl-7" value="&lt;font face=&quot;霞鹜文楷等宽&quot;&gt;&lt;br&gt;&lt;font style=&quot;forced-color-adjust: none; color: rgb(0, 0, 0); font-style: normal; font-variant-ligatures: normal; font-variant-caps: normal; font-weight: 400; letter-spacing: normal; orphans: 2; text-align: center; text-indent: 0px; text-transform: none; widows: 2; word-spacing: 0px; -webkit-text-stroke-width: 0px; white-space: nowrap; text-decoration-thickness: initial; text-decoration-style: initial; text-decoration-color: initial; font-size: 13px;&quot;&gt;出发13:00&lt;/font&gt;&lt;/font&gt;&lt;div style=&quot;forced-color-adjust: none; color: rgb(0, 0, 0); font-style: normal; font-variant-ligatures: normal; font-variant-caps: normal; font-weight: 400; letter-spacing: normal; orphans: 2; text-align: center; text-indent: 0px; text-transform: none; widows: 2; word-spacing: 0px; -webkit-text-stroke-width: 0px; white-space: nowrap; text-decoration-thickness: initial; text-decoration-style: initial; text-decoration-color: initial; font-size: 13px;&quot;&gt;&lt;font style=&quot;forced-color-adjust: none; font-size: 13px;&quot;&gt;&lt;font style=&quot;forced-color-adjust: none; font-size: 13px;&quot;&gt;&lt;font face=&quot;霞鹜文楷等宽&quot;&gt;🚗&lt;/font&gt;&lt;font face=&quot;霞鹜文楷等宽&quot;&gt; &lt;/font&gt;&lt;font face=&quot;霞鹜文楷等宽&quot;&gt;1&lt;/font&gt;&lt;/font&gt;&lt;font face=&quot;霞鹜文楷等宽&quot; style=&quot;forced-color-adjust: none; font-size: 13px;&quot;&gt;9min 每2min一趟&lt;/font&gt;&lt;br style=&quot;forced-color-adjust: none;&quot;&gt;&lt;/font&gt;&lt;div style=&quot;forced-color-adjust: none;&quot;&gt;&lt;font face=&quot;霞鹜文楷等宽&quot; style=&quot;forced-color-adjust: none; font-size: 13px;&quot;&gt;到达13:30&lt;/font&gt;&lt;/div&gt;&lt;/div&gt;&lt;div&gt;&lt;br&gt;&lt;/div&gt;" style="edgeStyle=orthogonalEdgeStyle;rounded=0;sketch=1;hachureGap=4;jiggle=2;curveFitting=1;orthogonalLoop=1;jettySize=auto;html=1;fontFamily=Architects Daughter;fontSource=https%3A%2F%2Ffonts.googleapis.com%2Fcss%3Ffamily%3DArchitects%2BDaughter;" edge="1" parent="1" source="x3YmSc0uyKY4Uf8zs8Sl-4" target="x3YmSc0uyKY4Uf8zs8Sl-6">
          <mxGeometry relative="1" as="geometry" />
        </mxCell>
        <mxCell id="x3YmSc0uyKY4Uf8zs8Sl-4" value="&lt;font face=&quot;霞鹜文楷等宽&quot;&gt;&lt;span style=&quot;font-size: 16px;&quot;&gt;3、{洗护用品}{Nashi Argan}&lt;/span&gt;&lt;/font&gt;" style="rounded=0;whiteSpace=wrap;html=1;sketch=1;hachureGap=4;jiggle=2;curveFitting=1;fontFamily=Architects Daughter;fontSource=https%3A%2F%2Ffonts.googleapis.com%2Fcss%3Ffamily%3DArchitects%2BDaughter;fillColor=#d5e8d4;strokeColor=#82b366;" vertex="1" parent="1">
          <mxGeometry x="680" y="51" width="220" height="70" as="geometry" />
        </mxCell>
        <mxCell id="x3YmSc0uyKY4Uf8zs8Sl-9" value="&lt;br&gt;&lt;font style=&quot;forced-color-adjust: none; color: rgb(0, 0, 0); font-style: normal; font-variant-ligatures: normal; font-variant-caps: normal; font-weight: 400; letter-spacing: normal; orphans: 2; text-align: center; text-indent: 0px; text-transform: none; widows: 2; word-spacing: 0px; -webkit-text-stroke-width: 0px; white-space: nowrap; text-decoration-thickness: initial; text-decoration-style: initial; text-decoration-color: initial; font-size: 13px;&quot; face=&quot;霞鹜文楷等宽&quot;&gt;出发14:40&lt;/font&gt;&lt;div style=&quot;forced-color-adjust: none; color: rgb(0, 0, 0); font-family: &amp;quot;Architects Daughter&amp;quot;; font-style: normal; font-variant-ligatures: normal; font-variant-caps: normal; font-weight: 400; letter-spacing: normal; orphans: 2; text-align: center; text-indent: 0px; text-transform: none; widows: 2; word-spacing: 0px; -webkit-text-stroke-width: 0px; white-space: nowrap; text-decoration-thickness: initial; text-decoration-style: initial; text-decoration-color: initial; font-size: 13px;&quot;&gt;&lt;font style=&quot;forced-color-adjust: none; font-size: 13px;&quot;&gt;&lt;font style=&quot;forced-color-adjust: none; font-size: 13px;&quot; face=&quot;x5yknhRJr8244Za6tDE2&quot;&gt;🚶‍♂️6&lt;/font&gt;&lt;font style=&quot;forced-color-adjust: none; font-size: 13px;&quot; face=&quot;霞鹜文楷等宽&quot;&gt;min 450m&lt;/font&gt;&lt;br style=&quot;forced-color-adjust: none;&quot;&gt;&lt;/font&gt;&lt;div style=&quot;forced-color-adjust: none;&quot;&gt;&lt;font style=&quot;forced-color-adjust: none; font-size: 13px;&quot; face=&quot;霞鹜文楷等宽&quot;&gt;到达14:50&lt;/font&gt;&lt;/div&gt;&lt;/div&gt;&lt;div&gt;&lt;br&gt;&lt;/div&gt;" style="edgeStyle=orthogonalEdgeStyle;rounded=0;sketch=1;hachureGap=4;jiggle=2;curveFitting=1;orthogonalLoop=1;jettySize=auto;html=1;fontFamily=Architects Daughter;fontSource=https%3A%2F%2Ffonts.googleapis.com%2Fcss%3Ffamily%3DArchitects%2BDaughter;" edge="1" parent="1" source="x3YmSc0uyKY4Uf8zs8Sl-6" target="x3YmSc0uyKY4Uf8zs8Sl-8">
          <mxGeometry relative="1" as="geometry">
            <mxPoint as="offset" />
          </mxGeometry>
        </mxCell>
        <mxCell id="x3YmSc0uyKY4Uf8zs8Sl-6" value="&lt;font face=&quot;霞鹜文楷等宽&quot;&gt;&lt;span style=&quot;font-size: 16px;&quot;&gt;4、{牛排意面12:30-米兰大教堂}{Ciciarà}&lt;/span&gt;&lt;/font&gt;" style="rounded=0;whiteSpace=wrap;html=1;sketch=1;hachureGap=4;jiggle=2;curveFitting=1;fontFamily=Architects Daughter;fontSource=https%3A%2F%2Ffonts.googleapis.com%2Fcss%3Ffamily%3DArchitects%2BDaughter;fillColor=#d5e8d4;strokeColor=#82b366;" vertex="1" parent="1">
          <mxGeometry x="730" y="226" width="220" height="70" as="geometry" />
        </mxCell>
        <mxCell id="x3YmSc0uyKY4Uf8zs8Sl-11" value="&lt;br&gt;&lt;font style=&quot;forced-color-adjust: none; color: rgb(0, 0, 0); font-style: normal; font-variant-ligatures: normal; font-variant-caps: normal; font-weight: 400; letter-spacing: normal; orphans: 2; text-align: center; text-indent: 0px; text-transform: none; widows: 2; word-spacing: 0px; -webkit-text-stroke-width: 0px; white-space: nowrap; text-decoration-thickness: initial; text-decoration-style: initial; text-decoration-color: initial; font-size: 13px;&quot; face=&quot;霞鹜文楷等宽&quot;&gt;出发14:55&lt;/font&gt;&lt;div style=&quot;forced-color-adjust: none; color: rgb(0, 0, 0); font-family: &amp;quot;Architects Daughter&amp;quot;; font-style: normal; font-variant-ligatures: normal; font-variant-caps: normal; font-weight: 400; letter-spacing: normal; orphans: 2; text-align: center; text-indent: 0px; text-transform: none; widows: 2; word-spacing: 0px; -webkit-text-stroke-width: 0px; white-space: nowrap; text-decoration-thickness: initial; text-decoration-style: initial; text-decoration-color: initial; font-size: 13px;&quot;&gt;&lt;font style=&quot;forced-color-adjust: none; font-size: 13px;&quot;&gt;&lt;font style=&quot;forced-color-adjust: none; font-size: 13px;&quot; face=&quot;x5yknhRJr8244Za6tDE2&quot;&gt;🚶‍♂️3&lt;/font&gt;&lt;font style=&quot;forced-color-adjust: none; font-size: 13px;&quot; face=&quot;霞鹜文楷等宽&quot;&gt;min 190m&lt;/font&gt;&lt;br style=&quot;forced-color-adjust: none;&quot;&gt;&lt;/font&gt;&lt;div style=&quot;forced-color-adjust: none;&quot;&gt;&lt;font style=&quot;forced-color-adjust: none; font-size: 13px;&quot; face=&quot;霞鹜文楷等宽&quot;&gt;到达15:05&lt;/font&gt;&lt;/div&gt;&lt;/div&gt;" style="edgeStyle=orthogonalEdgeStyle;rounded=0;sketch=1;hachureGap=4;jiggle=2;curveFitting=1;orthogonalLoop=1;jettySize=auto;html=1;fontFamily=Architects Daughter;fontSource=https%3A%2F%2Ffonts.googleapis.com%2Fcss%3Ffamily%3DArchitects%2BDaughter;" edge="1" parent="1" source="x3YmSc0uyKY4Uf8zs8Sl-8" target="x3YmSc0uyKY4Uf8zs8Sl-10">
          <mxGeometry x="0.0033" relative="1" as="geometry">
            <mxPoint as="offset" />
          </mxGeometry>
        </mxCell>
        <mxCell id="x3YmSc0uyKY4Uf8zs8Sl-8" value="&lt;font face=&quot;霞鹜文楷等宽&quot;&gt;&lt;span style=&quot;font-size: 16px;&quot;&gt;5、{香奈儿二世拱廊}{CHANEL FRAGRANCE &amp;amp; BEAUTY Milano Galleria Vittorio Emanuele}&lt;/span&gt;&lt;/font&gt;" style="rounded=0;whiteSpace=wrap;html=1;sketch=1;hachureGap=4;jiggle=2;curveFitting=1;fontFamily=Architects Daughter;fontSource=https%3A%2F%2Ffonts.googleapis.com%2Fcss%3Ffamily%3DArchitects%2BDaughter;fillColor=#d5e8d4;strokeColor=#82b366;" vertex="1" parent="1">
          <mxGeometry x="390" y="226" width="220" height="70" as="geometry" />
        </mxCell>
        <mxCell id="x3YmSc0uyKY4Uf8zs8Sl-13" value="&lt;br&gt;&lt;font style=&quot;forced-color-adjust: none; color: rgb(0, 0, 0); font-style: normal; font-variant-ligatures: normal; font-variant-caps: normal; font-weight: 400; letter-spacing: normal; orphans: 2; text-align: center; text-indent: 0px; text-transform: none; widows: 2; word-spacing: 0px; -webkit-text-stroke-width: 0px; white-space: nowrap; text-decoration-thickness: initial; text-decoration-style: initial; text-decoration-color: initial; font-size: 13px;&quot; face=&quot;霞鹜文楷等宽&quot;&gt;出发15:10&lt;/font&gt;&lt;div style=&quot;forced-color-adjust: none; color: rgb(0, 0, 0); font-family: &amp;quot;Architects Daughter&amp;quot;; font-style: normal; font-variant-ligatures: normal; font-variant-caps: normal; font-weight: 400; letter-spacing: normal; orphans: 2; text-align: center; text-indent: 0px; text-transform: none; widows: 2; word-spacing: 0px; -webkit-text-stroke-width: 0px; white-space: nowrap; text-decoration-thickness: initial; text-decoration-style: initial; text-decoration-color: initial; font-size: 13px;&quot;&gt;&lt;font style=&quot;forced-color-adjust: none; font-size: 13px;&quot;&gt;&lt;font style=&quot;forced-color-adjust: none; font-size: 13px;&quot; face=&quot;x5yknhRJr8244Za6tDE2&quot;&gt;🚶‍♂️3&lt;/font&gt;&lt;font style=&quot;forced-color-adjust: none; font-size: 13px;&quot; face=&quot;霞鹜文楷等宽&quot;&gt;min 190m&lt;/font&gt;&lt;br style=&quot;forced-color-adjust: none;&quot;&gt;&lt;/font&gt;&lt;div style=&quot;forced-color-adjust: none;&quot;&gt;&lt;font style=&quot;forced-color-adjust: none; font-size: 13px;&quot; face=&quot;霞鹜文楷等宽&quot;&gt;到达15:18&lt;/font&gt;&lt;/div&gt;&lt;/div&gt;&lt;div&gt;&lt;br&gt;&lt;/div&gt;" style="edgeStyle=orthogonalEdgeStyle;rounded=0;sketch=1;hachureGap=4;jiggle=2;curveFitting=1;orthogonalLoop=1;jettySize=auto;html=1;fontFamily=Architects Daughter;fontSource=https%3A%2F%2Ffonts.googleapis.com%2Fcss%3Ffamily%3DArchitects%2BDaughter;" edge="1" parent="1" source="x3YmSc0uyKY4Uf8zs8Sl-10" target="x3YmSc0uyKY4Uf8zs8Sl-12">
          <mxGeometry relative="1" as="geometry" />
        </mxCell>
        <mxCell id="x3YmSc0uyKY4Uf8zs8Sl-10" value="&lt;font face=&quot;霞鹜文楷等宽&quot;&gt;&lt;span style=&quot;font-size: 16px;&quot;&gt;6、{香奈儿-拿破仑大街}{CHANEL RINASCENTE SHOES}&lt;/span&gt;&lt;/font&gt;" style="rounded=0;whiteSpace=wrap;html=1;sketch=1;hachureGap=4;jiggle=2;curveFitting=1;fontFamily=Architects Daughter;fontSource=https%3A%2F%2Ffonts.googleapis.com%2Fcss%3Ffamily%3DArchitects%2BDaughter;fillColor=#d5e8d4;strokeColor=#82b366;" vertex="1" parent="1">
          <mxGeometry x="27" y="185" width="220" height="70" as="geometry" />
        </mxCell>
        <mxCell id="x3YmSc0uyKY4Uf8zs8Sl-15" value="&lt;br&gt;&lt;font style=&quot;forced-color-adjust: none; color: rgb(0, 0, 0); font-style: normal; font-variant-ligatures: normal; font-variant-caps: normal; font-weight: 400; letter-spacing: normal; orphans: 2; text-align: center; text-indent: 0px; text-transform: none; widows: 2; word-spacing: 0px; -webkit-text-stroke-width: 0px; white-space: nowrap; text-decoration-thickness: initial; text-decoration-style: initial; text-decoration-color: initial; font-size: 13px;&quot; face=&quot;霞鹜文楷等宽&quot;&gt;出发15:25&lt;/font&gt;&lt;div style=&quot;forced-color-adjust: none; color: rgb(0, 0, 0); font-family: &amp;quot;Architects Daughter&amp;quot;; font-style: normal; font-variant-ligatures: normal; font-variant-caps: normal; font-weight: 400; letter-spacing: normal; orphans: 2; text-align: center; text-indent: 0px; text-transform: none; widows: 2; word-spacing: 0px; -webkit-text-stroke-width: 0px; white-space: nowrap; text-decoration-thickness: initial; text-decoration-style: initial; text-decoration-color: initial; font-size: 13px;&quot;&gt;&lt;font style=&quot;forced-color-adjust: none; font-size: 13px;&quot;&gt;&lt;font style=&quot;forced-color-adjust: none; font-size: 13px;&quot; face=&quot;x5yknhRJr8244Za6tDE2&quot;&gt;🚶‍♂️1&lt;/font&gt;&lt;font style=&quot;forced-color-adjust: none; font-size: 13px;&quot; face=&quot;霞鹜文楷等宽&quot;&gt;min 250m&lt;/font&gt;&lt;br style=&quot;forced-color-adjust: none;&quot;&gt;&lt;/font&gt;&lt;div style=&quot;forced-color-adjust: none;&quot;&gt;&lt;font style=&quot;forced-color-adjust: none; font-size: 13px;&quot; face=&quot;霞鹜文楷等宽&quot;&gt;到达15:30&lt;/font&gt;&lt;/div&gt;&lt;/div&gt;&lt;div&gt;&lt;br/&gt;&lt;/div&gt;" style="edgeStyle=orthogonalEdgeStyle;rounded=0;sketch=1;hachureGap=4;jiggle=2;curveFitting=1;orthogonalLoop=1;jettySize=auto;html=1;fontFamily=Architects Daughter;fontSource=https%3A%2F%2Ffonts.googleapis.com%2Fcss%3Ffamily%3DArchitects%2BDaughter;" edge="1" parent="1" source="x3YmSc0uyKY4Uf8zs8Sl-12" target="x3YmSc0uyKY4Uf8zs8Sl-14">
          <mxGeometry relative="1" as="geometry" />
        </mxCell>
        <mxCell id="x3YmSc0uyKY4Uf8zs8Sl-12" value="&lt;font face=&quot;霞鹜文楷等宽&quot;&gt;&lt;span style=&quot;font-size: 16px;&quot;&gt;7、{皮包1-二世拱廊}{Coccinelle S.R.L.}&lt;/span&gt;&lt;/font&gt;" style="rounded=0;whiteSpace=wrap;html=1;sketch=1;hachureGap=4;jiggle=2;curveFitting=1;fontFamily=Architects Daughter;fontSource=https%3A%2F%2Ffonts.googleapis.com%2Fcss%3Ffamily%3DArchitects%2BDaughter;fillColor=#d5e8d4;strokeColor=#82b366;" vertex="1" parent="1">
          <mxGeometry x="40" y="376" width="220" height="70" as="geometry" />
        </mxCell>
        <mxCell id="x3YmSc0uyKY4Uf8zs8Sl-17" value="&lt;br&gt;&lt;font style=&quot;forced-color-adjust: none; color: rgb(0, 0, 0); font-style: normal; font-variant-ligatures: normal; font-variant-caps: normal; font-weight: 400; letter-spacing: normal; orphans: 2; text-align: center; text-indent: 0px; text-transform: none; widows: 2; word-spacing: 0px; -webkit-text-stroke-width: 0px; white-space: nowrap; text-decoration-thickness: initial; text-decoration-style: initial; text-decoration-color: initial; font-size: 13px;&quot; face=&quot;霞鹜文楷等宽&quot;&gt;出发15:35&lt;/font&gt;&lt;div style=&quot;forced-color-adjust: none; color: rgb(0, 0, 0); font-family: &amp;quot;Architects Daughter&amp;quot;; font-style: normal; font-variant-ligatures: normal; font-variant-caps: normal; font-weight: 400; letter-spacing: normal; orphans: 2; text-align: center; text-indent: 0px; text-transform: none; widows: 2; word-spacing: 0px; -webkit-text-stroke-width: 0px; white-space: nowrap; text-decoration-thickness: initial; text-decoration-style: initial; text-decoration-color: initial; font-size: 13px;&quot;&gt;&lt;font style=&quot;forced-color-adjust: none; font-size: 13px;&quot;&gt;&lt;font style=&quot;forced-color-adjust: none; font-size: 13px;&quot; face=&quot;x5yknhRJr8244Za6tDE2&quot;&gt;🚶‍♂️3&lt;/font&gt;&lt;font style=&quot;forced-color-adjust: none; font-size: 13px;&quot; face=&quot;霞鹜文楷等宽&quot;&gt;min 210m&lt;/font&gt;&lt;br style=&quot;forced-color-adjust: none;&quot;&gt;&lt;/font&gt;&lt;div style=&quot;forced-color-adjust: none;&quot;&gt;&lt;font style=&quot;forced-color-adjust: none; font-size: 13px;&quot; face=&quot;霞鹜文楷等宽&quot;&gt;到达15:40&lt;/font&gt;&lt;/div&gt;&lt;/div&gt;" style="edgeStyle=orthogonalEdgeStyle;rounded=0;sketch=1;hachureGap=4;jiggle=2;curveFitting=1;orthogonalLoop=1;jettySize=auto;html=1;fontFamily=Architects Daughter;fontSource=https%3A%2F%2Ffonts.googleapis.com%2Fcss%3Ffamily%3DArchitects%2BDaughter;" edge="1" parent="1" source="x3YmSc0uyKY4Uf8zs8Sl-14" target="x3YmSc0uyKY4Uf8zs8Sl-16">
          <mxGeometry relative="1" as="geometry" />
        </mxCell>
        <mxCell id="x3YmSc0uyKY4Uf8zs8Sl-14" value="&lt;font face=&quot;霞鹜文楷等宽&quot;&gt;&lt;span style=&quot;font-size: 16px;&quot;&gt;8、{化妆品-香水}{Officina Profumo-Farmaceutica di Santa Maria Novella}&lt;/span&gt;&lt;/font&gt;" style="rounded=0;whiteSpace=wrap;html=1;sketch=1;hachureGap=4;jiggle=2;curveFitting=1;fontFamily=Architects Daughter;fontSource=https%3A%2F%2Ffonts.googleapis.com%2Fcss%3Ffamily%3DArchitects%2BDaughter;fillColor=#d5e8d4;strokeColor=#82b366;" vertex="1" parent="1">
          <mxGeometry x="390" y="376" width="220" height="70" as="geometry" />
        </mxCell>
        <mxCell id="x3YmSc0uyKY4Uf8zs8Sl-19" value="&lt;font style=&quot;forced-color-adjust: none; color: rgb(0, 0, 0); font-style: normal; font-variant-ligatures: normal; font-variant-caps: normal; font-weight: 400; letter-spacing: normal; orphans: 2; text-align: center; text-indent: 0px; text-transform: none; widows: 2; word-spacing: 0px; -webkit-text-stroke-width: 0px; white-space: nowrap; text-decoration-thickness: initial; text-decoration-style: initial; text-decoration-color: initial; font-size: 13px;&quot; face=&quot;霞鹜文楷等宽&quot;&gt;出发15:55&lt;/font&gt;&lt;div style=&quot;forced-color-adjust: none; color: rgb(0, 0, 0); font-family: &amp;quot;Architects Daughter&amp;quot;; font-style: normal; font-variant-ligatures: normal; font-variant-caps: normal; font-weight: 400; letter-spacing: normal; orphans: 2; text-align: center; text-indent: 0px; text-transform: none; widows: 2; word-spacing: 0px; -webkit-text-stroke-width: 0px; white-space: nowrap; text-decoration-thickness: initial; text-decoration-style: initial; text-decoration-color: initial; font-size: 13px;&quot;&gt;&lt;font style=&quot;forced-color-adjust: none; font-size: 13px;&quot;&gt;&lt;font style=&quot;forced-color-adjust: none; font-size: 13px;&quot; face=&quot;x5yknhRJr8244Za6tDE2&quot;&gt;🚶‍♂️1&lt;/font&gt;&lt;font style=&quot;forced-color-adjust: none; font-size: 13px;&quot; face=&quot;霞鹜文楷等宽&quot;&gt;min 50m&lt;/font&gt;&lt;br style=&quot;forced-color-adjust: none;&quot;&gt;&lt;/font&gt;&lt;div style=&quot;forced-color-adjust: none;&quot;&gt;&lt;font style=&quot;forced-color-adjust: none; font-size: 13px;&quot; face=&quot;霞鹜文楷等宽&quot;&gt;到达16:00&lt;/font&gt;&lt;/div&gt;&lt;/div&gt;" style="edgeStyle=orthogonalEdgeStyle;rounded=0;sketch=1;hachureGap=4;jiggle=2;curveFitting=1;orthogonalLoop=1;jettySize=auto;html=1;fontFamily=Architects Daughter;fontSource=https%3A%2F%2Ffonts.googleapis.com%2Fcss%3Ffamily%3DArchitects%2BDaughter;" edge="1" parent="1" source="x3YmSc0uyKY4Uf8zs8Sl-16" target="x3YmSc0uyKY4Uf8zs8Sl-18">
          <mxGeometry relative="1" as="geometry" />
        </mxCell>
        <mxCell id="x3YmSc0uyKY4Uf8zs8Sl-16" value="&lt;font face=&quot;霞鹜文楷等宽&quot;&gt;&lt;span style=&quot;font-size: 16px;&quot;&gt;9、{埃马努埃莱二世拱廊}{埃马努埃莱二世拱廊}&lt;/span&gt;&lt;/font&gt;" style="rounded=0;whiteSpace=wrap;html=1;sketch=1;hachureGap=4;jiggle=2;curveFitting=1;fontFamily=Architects Daughter;fontSource=https%3A%2F%2Ffonts.googleapis.com%2Fcss%3Ffamily%3DArchitects%2BDaughter;fillColor=#d5e8d4;strokeColor=#82b366;" vertex="1" parent="1">
          <mxGeometry x="730" y="376" width="220" height="70" as="geometry" />
        </mxCell>
        <mxCell id="x3YmSc0uyKY4Uf8zs8Sl-21" value="&lt;font style=&quot;forced-color-adjust: none; color: rgb(0, 0, 0); font-style: normal; font-variant-ligatures: normal; font-variant-caps: normal; font-weight: 400; letter-spacing: normal; orphans: 2; text-align: center; text-indent: 0px; text-transform: none; widows: 2; word-spacing: 0px; -webkit-text-stroke-width: 0px; white-space: nowrap; text-decoration-thickness: initial; text-decoration-style: initial; text-decoration-color: initial; font-size: 13px;&quot; face=&quot;霞鹜文楷等宽&quot;&gt;出发16:05&lt;/font&gt;&lt;div style=&quot;forced-color-adjust: none; color: rgb(0, 0, 0); font-family: &amp;quot;Architects Daughter&amp;quot;; font-style: normal; font-variant-ligatures: normal; font-variant-caps: normal; font-weight: 400; letter-spacing: normal; orphans: 2; text-align: center; text-indent: 0px; text-transform: none; widows: 2; word-spacing: 0px; -webkit-text-stroke-width: 0px; white-space: nowrap; text-decoration-thickness: initial; text-decoration-style: initial; text-decoration-color: initial; font-size: 13px;&quot;&gt;&lt;font style=&quot;forced-color-adjust: none; font-size: 13px;&quot;&gt;&lt;font style=&quot;forced-color-adjust: none; font-size: 13px;&quot; face=&quot;x5yknhRJr8244Za6tDE2&quot;&gt;🚶‍♂️2&lt;/font&gt;&lt;font style=&quot;forced-color-adjust: none; font-size: 13px;&quot; face=&quot;霞鹜文楷等宽&quot;&gt;min 170m&lt;/font&gt;&lt;br style=&quot;forced-color-adjust: none;&quot;&gt;&lt;/font&gt;&lt;div style=&quot;forced-color-adjust: none;&quot;&gt;&lt;font style=&quot;forced-color-adjust: none; font-size: 13px;&quot; face=&quot;霞鹜文楷等宽&quot;&gt;到达16:10&lt;/font&gt;&lt;/div&gt;&lt;/div&gt;" style="edgeStyle=orthogonalEdgeStyle;rounded=0;sketch=1;hachureGap=4;jiggle=2;curveFitting=1;orthogonalLoop=1;jettySize=auto;html=1;fontFamily=Architects Daughter;fontSource=https%3A%2F%2Ffonts.googleapis.com%2Fcss%3Ffamily%3DArchitects%2BDaughter;" edge="1" parent="1" source="x3YmSc0uyKY4Uf8zs8Sl-18" target="x3YmSc0uyKY4Uf8zs8Sl-20">
          <mxGeometry relative="1" as="geometry" />
        </mxCell>
        <mxCell id="x3YmSc0uyKY4Uf8zs8Sl-18" value="&lt;font face=&quot;霞鹜文楷等宽&quot;&gt;&lt;span style=&quot;font-size: 16px;&quot;&gt;10、{皮包-卡包}{Piumelli Gloves}&lt;/span&gt;&lt;/font&gt;" style="rounded=0;whiteSpace=wrap;html=1;sketch=1;hachureGap=4;jiggle=2;curveFitting=1;fontFamily=Architects Daughter;fontSource=https%3A%2F%2Ffonts.googleapis.com%2Fcss%3Ffamily%3DArchitects%2BDaughter;fillColor=#d5e8d4;strokeColor=#82b366;" vertex="1" parent="1">
          <mxGeometry x="730" y="526" width="220" height="70" as="geometry" />
        </mxCell>
        <mxCell id="x3YmSc0uyKY4Uf8zs8Sl-23" value="&lt;font style=&quot;forced-color-adjust: none; color: rgb(0, 0, 0); font-style: normal; font-variant-ligatures: normal; font-variant-caps: normal; font-weight: 400; letter-spacing: normal; orphans: 2; text-align: center; text-indent: 0px; text-transform: none; widows: 2; word-spacing: 0px; -webkit-text-stroke-width: 0px; white-space: nowrap; text-decoration-thickness: initial; text-decoration-style: initial; text-decoration-color: initial; font-size: 13px;&quot; face=&quot;霞鹜文楷等宽&quot;&gt;出发16:15&lt;/font&gt;&lt;div style=&quot;forced-color-adjust: none; color: rgb(0, 0, 0); font-family: &amp;quot;Architects Daughter&amp;quot;; font-style: normal; font-variant-ligatures: normal; font-variant-caps: normal; font-weight: 400; letter-spacing: normal; orphans: 2; text-align: center; text-indent: 0px; text-transform: none; widows: 2; word-spacing: 0px; -webkit-text-stroke-width: 0px; white-space: nowrap; text-decoration-thickness: initial; text-decoration-style: initial; text-decoration-color: initial; font-size: 13px;&quot;&gt;&lt;font style=&quot;forced-color-adjust: none; font-size: 13px;&quot;&gt;&lt;font style=&quot;forced-color-adjust: none; font-size: 13px;&quot; face=&quot;x5yknhRJr8244Za6tDE2&quot;&gt;🚶‍♂️1&lt;/font&gt;&lt;font style=&quot;forced-color-adjust: none; font-size: 13px;&quot; face=&quot;霞鹜文楷等宽&quot;&gt;min 76m&lt;/font&gt;&lt;br style=&quot;forced-color-adjust: none;&quot;&gt;&lt;/font&gt;&lt;div style=&quot;forced-color-adjust: none;&quot;&gt;&lt;font style=&quot;forced-color-adjust: none; font-size: 13px;&quot; face=&quot;霞鹜文楷等宽&quot;&gt;到达16:20&lt;/font&gt;&lt;/div&gt;&lt;/div&gt;" style="edgeStyle=orthogonalEdgeStyle;rounded=0;sketch=1;hachureGap=4;jiggle=2;curveFitting=1;orthogonalLoop=1;jettySize=auto;html=1;fontFamily=Architects Daughter;fontSource=https%3A%2F%2Ffonts.googleapis.com%2Fcss%3Ffamily%3DArchitects%2BDaughter;" edge="1" parent="1" source="x3YmSc0uyKY4Uf8zs8Sl-20" target="x3YmSc0uyKY4Uf8zs8Sl-22">
          <mxGeometry relative="1" as="geometry" />
        </mxCell>
        <mxCell id="x3YmSc0uyKY4Uf8zs8Sl-20" value="&lt;font face=&quot;霞鹜文楷等宽&quot;&gt;&lt;span style=&quot;font-size: 16px;&quot;&gt;11、{面包店-二世拱廊}{Panzerotti Luini}&lt;/span&gt;&lt;/font&gt;" style="rounded=0;whiteSpace=wrap;html=1;sketch=1;hachureGap=4;jiggle=2;curveFitting=1;fontFamily=Architects Daughter;fontSource=https%3A%2F%2Ffonts.googleapis.com%2Fcss%3Ffamily%3DArchitects%2BDaughter;fillColor=#d5e8d4;strokeColor=#82b366;" vertex="1" parent="1">
          <mxGeometry x="400" y="526" width="220" height="70" as="geometry" />
        </mxCell>
        <mxCell id="x3YmSc0uyKY4Uf8zs8Sl-25" value="&lt;font style=&quot;forced-color-adjust: none; color: rgb(0, 0, 0); font-style: normal; font-variant-ligatures: normal; font-variant-caps: normal; font-weight: 400; letter-spacing: normal; orphans: 2; text-align: center; text-indent: 0px; text-transform: none; widows: 2; word-spacing: 0px; -webkit-text-stroke-width: 0px; white-space: nowrap; text-decoration-thickness: initial; text-decoration-style: initial; text-decoration-color: initial; font-size: 13px;&quot; face=&quot;霞鹜文楷等宽&quot;&gt;出发16:25&lt;/font&gt;&lt;div style=&quot;forced-color-adjust: none; color: rgb(0, 0, 0); font-family: &amp;quot;Architects Daughter&amp;quot;; font-style: normal; font-variant-ligatures: normal; font-variant-caps: normal; font-weight: 400; letter-spacing: normal; orphans: 2; text-align: center; text-indent: 0px; text-transform: none; widows: 2; word-spacing: 0px; -webkit-text-stroke-width: 0px; white-space: nowrap; text-decoration-thickness: initial; text-decoration-style: initial; text-decoration-color: initial; font-size: 13px;&quot;&gt;&lt;font style=&quot;forced-color-adjust: none; font-size: 13px;&quot;&gt;&lt;font style=&quot;forced-color-adjust: none; font-size: 13px;&quot; face=&quot;x5yknhRJr8244Za6tDE2&quot;&gt;🚶‍♂️5&lt;/font&gt;&lt;font style=&quot;forced-color-adjust: none; font-size: 13px;&quot; face=&quot;霞鹜文楷等宽&quot;&gt;min 400m&lt;/font&gt;&lt;br style=&quot;forced-color-adjust: none;&quot;&gt;&lt;/font&gt;&lt;div style=&quot;forced-color-adjust: none;&quot;&gt;&lt;font style=&quot;forced-color-adjust: none; font-size: 13px;&quot; face=&quot;霞鹜文楷等宽&quot;&gt;到达16:30&lt;/font&gt;&lt;/div&gt;&lt;/div&gt;" style="edgeStyle=orthogonalEdgeStyle;rounded=0;sketch=1;hachureGap=4;jiggle=2;curveFitting=1;orthogonalLoop=1;jettySize=auto;html=1;fontFamily=Architects Daughter;fontSource=https%3A%2F%2Ffonts.googleapis.com%2Fcss%3Ffamily%3DArchitects%2BDaughter;" edge="1" parent="1" source="x3YmSc0uyKY4Uf8zs8Sl-22" target="x3YmSc0uyKY4Uf8zs8Sl-24">
          <mxGeometry relative="1" as="geometry" />
        </mxCell>
        <mxCell id="x3YmSc0uyKY4Uf8zs8Sl-22" value="&lt;font face=&quot;霞鹜文楷等宽&quot;&gt;&lt;span style=&quot;font-size: 16px;&quot;&gt;12、{油炸披萨-11点⭐}{Zia Esterina Sorbillo}&lt;/span&gt;&lt;/font&gt;" style="rounded=0;whiteSpace=wrap;html=1;sketch=1;hachureGap=4;jiggle=2;curveFitting=1;fontFamily=Architects Daughter;fontSource=https%3A%2F%2Ffonts.googleapis.com%2Fcss%3Ffamily%3DArchitects%2BDaughter;fillColor=#d5e8d4;strokeColor=#82b366;" vertex="1" parent="1">
          <mxGeometry x="40" y="526" width="220" height="70" as="geometry" />
        </mxCell>
        <mxCell id="x3YmSc0uyKY4Uf8zs8Sl-27" value="&lt;font style=&quot;forced-color-adjust: none; color: rgb(0, 0, 0); font-style: normal; font-variant-ligatures: normal; font-variant-caps: normal; font-weight: 400; letter-spacing: normal; orphans: 2; text-align: center; text-indent: 0px; text-transform: none; widows: 2; word-spacing: 0px; -webkit-text-stroke-width: 0px; white-space: nowrap; text-decoration-thickness: initial; text-decoration-style: initial; text-decoration-color: initial; font-size: 13px;&quot; face=&quot;霞鹜文楷等宽&quot;&gt;出发16:35&lt;/font&gt;&lt;div style=&quot;forced-color-adjust: none; color: rgb(0, 0, 0); font-family: &amp;quot;Architects Daughter&amp;quot;; font-style: normal; font-variant-ligatures: normal; font-variant-caps: normal; font-weight: 400; letter-spacing: normal; orphans: 2; text-align: center; text-indent: 0px; text-transform: none; widows: 2; word-spacing: 0px; -webkit-text-stroke-width: 0px; white-space: nowrap; text-decoration-thickness: initial; text-decoration-style: initial; text-decoration-color: initial; font-size: 13px;&quot;&gt;&lt;font style=&quot;forced-color-adjust: none; font-size: 13px;&quot;&gt;&lt;font style=&quot;forced-color-adjust: none; font-size: 13px;&quot; face=&quot;x5yknhRJr8244Za6tDE2&quot;&gt;🚶‍♂️1&lt;/font&gt;&lt;font style=&quot;forced-color-adjust: none; font-size: 13px;&quot; face=&quot;霞鹜文楷等宽&quot;&gt;min 25m&lt;/font&gt;&lt;br style=&quot;forced-color-adjust: none;&quot;&gt;&lt;/font&gt;&lt;div style=&quot;forced-color-adjust: none;&quot;&gt;&lt;font style=&quot;forced-color-adjust: none; font-size: 13px;&quot; face=&quot;霞鹜文楷等宽&quot;&gt;到达16:40&lt;/font&gt;&lt;/div&gt;&lt;/div&gt;" style="edgeStyle=orthogonalEdgeStyle;rounded=0;sketch=1;hachureGap=4;jiggle=2;curveFitting=1;orthogonalLoop=1;jettySize=auto;html=1;fontFamily=Architects Daughter;fontSource=https%3A%2F%2Ffonts.googleapis.com%2Fcss%3Ffamily%3DArchitects%2BDaughter;" edge="1" parent="1" source="x3YmSc0uyKY4Uf8zs8Sl-24" target="x3YmSc0uyKY4Uf8zs8Sl-26">
          <mxGeometry relative="1" as="geometry" />
        </mxCell>
        <mxCell id="x3YmSc0uyKY4Uf8zs8Sl-24" value="&lt;font face=&quot;霞鹜文楷等宽&quot;&gt;&lt;span style=&quot;font-size: 16px;&quot;&gt;13、{香奈儿2-拿破仑大街}{CHANEL}&lt;/span&gt;&lt;/font&gt;" style="rounded=0;whiteSpace=wrap;html=1;sketch=1;hachureGap=4;jiggle=2;curveFitting=1;fontFamily=Architects Daughter;fontSource=https%3A%2F%2Ffonts.googleapis.com%2Fcss%3Ffamily%3DArchitects%2BDaughter;fillColor=#d5e8d4;strokeColor=#82b366;" vertex="1" parent="1">
          <mxGeometry x="40" y="676" width="220" height="70" as="geometry" />
        </mxCell>
        <mxCell id="x3YmSc0uyKY4Uf8zs8Sl-29" value="&lt;font style=&quot;forced-color-adjust: none; color: rgb(0, 0, 0); font-style: normal; font-variant-ligatures: normal; font-variant-caps: normal; font-weight: 400; letter-spacing: normal; orphans: 2; text-align: center; text-indent: 0px; text-transform: none; widows: 2; word-spacing: 0px; -webkit-text-stroke-width: 0px; white-space: nowrap; text-decoration-thickness: initial; text-decoration-style: initial; text-decoration-color: initial; font-size: 13px;&quot; face=&quot;霞鹜文楷等宽&quot;&gt;出发16:44&lt;/font&gt;&lt;div style=&quot;forced-color-adjust: none; color: rgb(0, 0, 0); font-family: &amp;quot;Architects Daughter&amp;quot;; font-style: normal; font-variant-ligatures: normal; font-variant-caps: normal; font-weight: 400; letter-spacing: normal; orphans: 2; text-align: center; text-indent: 0px; text-transform: none; widows: 2; word-spacing: 0px; -webkit-text-stroke-width: 0px; white-space: nowrap; text-decoration-thickness: initial; text-decoration-style: initial; text-decoration-color: initial; font-size: 13px;&quot;&gt;&lt;font style=&quot;forced-color-adjust: none; font-size: 13px;&quot;&gt;&lt;font style=&quot;forced-color-adjust: none; font-size: 13px;&quot; face=&quot;x5yknhRJr8244Za6tDE2&quot;&gt;🚶‍♂️2&lt;/font&gt;&lt;font style=&quot;forced-color-adjust: none; font-size: 13px;&quot; face=&quot;霞鹜文楷等宽&quot;&gt;min 130m&lt;/font&gt;&lt;br style=&quot;forced-color-adjust: none;&quot;&gt;&lt;/font&gt;&lt;div style=&quot;forced-color-adjust: none;&quot;&gt;&lt;font style=&quot;forced-color-adjust: none; font-size: 13px;&quot; face=&quot;霞鹜文楷等宽&quot;&gt;到达16:50&lt;/font&gt;&lt;/div&gt;&lt;/div&gt;" style="edgeStyle=orthogonalEdgeStyle;rounded=0;sketch=1;hachureGap=4;jiggle=2;curveFitting=1;orthogonalLoop=1;jettySize=auto;html=1;fontFamily=Architects Daughter;fontSource=https%3A%2F%2Ffonts.googleapis.com%2Fcss%3Ffamily%3DArchitects%2BDaughter;" edge="1" parent="1" source="x3YmSc0uyKY4Uf8zs8Sl-26" target="x3YmSc0uyKY4Uf8zs8Sl-28">
          <mxGeometry relative="1" as="geometry">
            <mxPoint as="offset" />
          </mxGeometry>
        </mxCell>
        <mxCell id="x3YmSc0uyKY4Uf8zs8Sl-26" value="&lt;font face=&quot;霞鹜文楷等宽&quot;&gt;&lt;span style=&quot;font-size: 16px;&quot;&gt;14、{咖啡-香奈儿2店-拿破仑大街}{Cova Montenapoleone}&lt;/span&gt;&lt;/font&gt;" style="rounded=0;whiteSpace=wrap;html=1;sketch=1;hachureGap=4;jiggle=2;curveFitting=1;fontFamily=Architects Daughter;fontSource=https%3A%2F%2Ffonts.googleapis.com%2Fcss%3Ffamily%3DArchitects%2BDaughter;fillColor=#d5e8d4;strokeColor=#82b366;" vertex="1" parent="1">
          <mxGeometry x="390" y="671" width="220" height="70" as="geometry" />
        </mxCell>
        <mxCell id="x3YmSc0uyKY4Uf8zs8Sl-31" value="&lt;font style=&quot;forced-color-adjust: none; color: rgb(0, 0, 0); font-style: normal; font-variant-ligatures: normal; font-variant-caps: normal; font-weight: 400; letter-spacing: normal; orphans: 2; text-align: center; text-indent: 0px; text-transform: none; widows: 2; word-spacing: 0px; -webkit-text-stroke-width: 0px; white-space: nowrap; text-decoration-thickness: initial; text-decoration-style: initial; text-decoration-color: initial; font-size: 13px;&quot; face=&quot;霞鹜文楷等宽&quot;&gt;出发16:55&lt;/font&gt;&lt;div style=&quot;forced-color-adjust: none; color: rgb(0, 0, 0); font-family: &amp;quot;Architects Daughter&amp;quot;; font-style: normal; font-variant-ligatures: normal; font-variant-caps: normal; font-weight: 400; letter-spacing: normal; orphans: 2; text-align: center; text-indent: 0px; text-transform: none; widows: 2; word-spacing: 0px; -webkit-text-stroke-width: 0px; white-space: nowrap; text-decoration-thickness: initial; text-decoration-style: initial; text-decoration-color: initial; font-size: 13px;&quot;&gt;&lt;font style=&quot;forced-color-adjust: none; font-size: 13px;&quot;&gt;&lt;font style=&quot;forced-color-adjust: none; font-size: 13px;&quot; face=&quot;x5yknhRJr8244Za6tDE2&quot;&gt;🚶‍♂️24&lt;/font&gt;&lt;font style=&quot;forced-color-adjust: none; font-size: 13px;&quot; face=&quot;霞鹜文楷等宽&quot;&gt;min 1.7km &amp;amp; 🚗16min&lt;/font&gt;&lt;br style=&quot;forced-color-adjust: none;&quot;&gt;&lt;/font&gt;&lt;div style=&quot;forced-color-adjust: none;&quot;&gt;&lt;font style=&quot;forced-color-adjust: none; font-size: 13px;&quot; face=&quot;霞鹜文楷等宽&quot;&gt;到达18:25&lt;/font&gt;&lt;/div&gt;&lt;/div&gt;" style="edgeStyle=orthogonalEdgeStyle;rounded=0;sketch=1;hachureGap=4;jiggle=2;curveFitting=1;orthogonalLoop=1;jettySize=auto;html=1;fontFamily=Architects Daughter;fontSource=https%3A%2F%2Ffonts.googleapis.com%2Fcss%3Ffamily%3DArchitects%2BDaughter;" edge="1" parent="1" source="x3YmSc0uyKY4Uf8zs8Sl-28" target="x3YmSc0uyKY4Uf8zs8Sl-30">
          <mxGeometry relative="1" as="geometry" />
        </mxCell>
        <mxCell id="x3YmSc0uyKY4Uf8zs8Sl-28" value="&lt;font face=&quot;霞鹜文楷等宽&quot;&gt;&lt;span style=&quot;font-size: 16px;&quot;&gt;15、{香奈儿⭐}{CHANEL Milano Sant&#39;Andrea}&lt;/span&gt;&lt;/font&gt;" style="rounded=0;whiteSpace=wrap;html=1;sketch=1;hachureGap=4;jiggle=2;curveFitting=1;fontFamily=Architects Daughter;fontSource=https%3A%2F%2Ffonts.googleapis.com%2Fcss%3Ffamily%3DArchitects%2BDaughter;fillColor=#d5e8d4;strokeColor=#82b366;fillStyle=solid;" vertex="1" parent="1">
          <mxGeometry x="750" y="631" width="220" height="70" as="geometry" />
        </mxCell>
        <mxCell id="x3YmSc0uyKY4Uf8zs8Sl-33" value="&lt;font style=&quot;forced-color-adjust: none; color: rgb(0, 0, 0); font-style: normal; font-variant-ligatures: normal; font-variant-caps: normal; font-weight: 400; letter-spacing: normal; orphans: 2; text-align: center; text-indent: 0px; text-transform: none; widows: 2; word-spacing: 0px; -webkit-text-stroke-width: 0px; white-space: nowrap; text-decoration-thickness: initial; text-decoration-style: initial; text-decoration-color: initial; font-size: 13px;&quot; face=&quot;霞鹜文楷等宽&quot;&gt;出发18:35&lt;/font&gt;&lt;div style=&quot;forced-color-adjust: none; color: rgb(0, 0, 0); font-family: &amp;quot;Architects Daughter&amp;quot;; font-style: normal; font-variant-ligatures: normal; font-variant-caps: normal; font-weight: 400; letter-spacing: normal; orphans: 2; text-align: center; text-indent: 0px; text-transform: none; widows: 2; word-spacing: 0px; -webkit-text-stroke-width: 0px; white-space: nowrap; text-decoration-thickness: initial; text-decoration-style: initial; text-decoration-color: initial; font-size: 13px;&quot;&gt;&lt;font style=&quot;forced-color-adjust: none; font-size: 13px;&quot;&gt;&lt;font style=&quot;forced-color-adjust: none; font-size: 13px;&quot; face=&quot;x5yknhRJr8244Za6tDE2&quot;&gt;🚶‍♂️10&lt;/font&gt;&lt;font style=&quot;forced-color-adjust: none; font-size: 13px;&quot; face=&quot;霞鹜文楷等宽&quot;&gt;min 750m&lt;/font&gt;&lt;br style=&quot;forced-color-adjust: none;&quot;&gt;&lt;/font&gt;&lt;div style=&quot;forced-color-adjust: none;&quot;&gt;&lt;font style=&quot;forced-color-adjust: none; font-size: 13px;&quot; face=&quot;霞鹜文楷等宽&quot;&gt;到达18:50&lt;/font&gt;&lt;/div&gt;&lt;/div&gt;" style="edgeStyle=orthogonalEdgeStyle;rounded=0;sketch=1;hachureGap=4;jiggle=2;curveFitting=1;orthogonalLoop=1;jettySize=auto;html=1;fontFamily=Architects Daughter;fontSource=https%3A%2F%2Ffonts.googleapis.com%2Fcss%3Ffamily%3DArchitects%2BDaughter;" edge="1" parent="1" source="x3YmSc0uyKY4Uf8zs8Sl-30" target="x3YmSc0uyKY4Uf8zs8Sl-32">
          <mxGeometry relative="1" as="geometry" />
        </mxCell>
        <mxCell id="x3YmSc0uyKY4Uf8zs8Sl-30" value="&lt;font face=&quot;霞鹜文楷等宽&quot;&gt;&lt;span style=&quot;font-size: 16px;&quot;&gt;16、{甜品店8点-奶油面包开心果面包⭐-中央车站}{Gelsomina}&lt;/span&gt;&lt;/font&gt;" style="rounded=0;whiteSpace=wrap;html=1;sketch=1;hachureGap=4;jiggle=2;curveFitting=1;fontFamily=Architects Daughter;fontSource=https%3A%2F%2Ffonts.googleapis.com%2Fcss%3Ffamily%3DArchitects%2BDaughter;fillColor=#d5e8d4;strokeColor=#82b366;" vertex="1" parent="1">
          <mxGeometry x="925" y="752" width="220" height="70" as="geometry" />
        </mxCell>
        <mxCell id="x3YmSc0uyKY4Uf8zs8Sl-34" value="&lt;font face=&quot;霞鹜文楷等宽&quot;&gt;出发20:00&lt;/font&gt;&lt;div&gt;&lt;font face=&quot;x5yknhRJr8244Za6tDE2&quot;&gt;🚶‍♂️16&lt;/font&gt;&lt;font face=&quot;霞鹜文楷等宽&quot;&gt;min 1km &amp;amp; 🚗 13min&lt;/font&gt;&lt;br&gt;&lt;div&gt;&lt;font face=&quot;霞鹜文楷等宽&quot;&gt;到达20:20&lt;/font&gt;&lt;/div&gt;&lt;/div&gt;" style="edgeStyle=orthogonalEdgeStyle;rounded=0;sketch=1;hachureGap=4;jiggle=2;curveFitting=1;orthogonalLoop=1;jettySize=auto;html=1;exitX=0.5;exitY=0;exitDx=0;exitDy=0;entryX=1;entryY=0;entryDx=0;entryDy=0;fontFamily=Architects Daughter;fontSource=https%3A%2F%2Ffonts.googleapis.com%2Fcss%3Ffamily%3DArchitects%2BDaughter;labelBackgroundColor=default;" edge="1" parent="1" source="x3YmSc0uyKY4Uf8zs8Sl-32" target="x3YmSc0uyKY4Uf8zs8Sl-1">
          <mxGeometry relative="1" as="geometry">
            <Array as="points">
              <mxPoint x="1030" y="21" />
              <mxPoint x="240" y="21" />
            </Array>
          </mxGeometry>
        </mxCell>
        <mxCell id="x3YmSc0uyKY4Uf8zs8Sl-32" value="&lt;font face=&quot;霞鹜文楷等宽&quot;&gt;&lt;span style=&quot;font-size: 16px;&quot;&gt;17、下午7:00{牛排12点-bombetta Martazza、costoletta d‘agnello⭐}{Il Mannarino Tenca}&lt;/span&gt;&lt;/font&gt;" style="rounded=0;whiteSpace=wrap;html=1;sketch=1;hachureGap=4;jiggle=2;curveFitting=1;fontFamily=Architects Daughter;fontSource=https%3A%2F%2Ffonts.googleapis.com%2Fcss%3Ffamily%3DArchitects%2BDaughter;fillColor=#d5e8d4;strokeColor=#82b366;" vertex="1" parent="1">
          <mxGeometry x="910" y="31" width="240" height="80" as="geometry" />
        </mxCell>
        <mxCell id="jSPcSnnjLBn9A0uWtJw5-2" value="&lt;font color=&quot;#ff0000&quot; face=&quot;霞鹜文楷等宽&quot; style=&quot;font-size: 17px;&quot;&gt;米兰第一天&lt;/font&gt;&lt;div style=&quot;font-size: 17px;&quot;&gt;&lt;font color=&quot;#ff0000&quot; face=&quot;霞鹜文楷等宽&quot; style=&quot;font-size: 17px;&quot;&gt;下午&lt;/font&gt;&lt;/div&gt;" style="ellipse;shape=cloud;whiteSpace=wrap;html=1;sketch=1;hachureGap=4;jiggle=2;curveFitting=1;fontFamily=Architects Daughter;fontSource=https%3A%2F%2Ffonts.googleapis.com%2Fcss%3Ffamily%3DArchitects%2BDaughter;fontSize=11;fontColor=default;labelBackgroundColor=none;" vertex="1" parent="1">
          <mxGeometry x="40" y="1" width="120" height="80" as="geometry" />
        </mxCell>
      </root>
    </mxGraphModel>
  </diagram>
  <diagram id="0f3l6q4msbNk4NCdujyU" name="米兰第二天">
    <mxGraphModel grid="0" page="1" gridSize="10" guides="1" tooltips="1" connect="1" arrows="1" fold="1" pageScale="1" pageWidth="1169" pageHeight="827" math="0" shadow="0">
      <root>
        <mxCell id="0" />
        <mxCell id="1" parent="0" />
        <mxCell id="fj_l979_7TU4K1nSKBnY-1" value="" style="edgeStyle=orthogonalEdgeStyle;rounded=0;sketch=1;hachureGap=4;jiggle=2;curveFitting=1;orthogonalLoop=1;jettySize=auto;html=1;fontFamily=霞鹜文楷等宽;" edge="1" parent="1" source="fj_l979_7TU4K1nSKBnY-3" target="fj_l979_7TU4K1nSKBnY-5">
          <mxGeometry relative="1" as="geometry" />
        </mxCell>
        <mxCell id="fj_l979_7TU4K1nSKBnY-2" value="&lt;font style=&quot;font-size: 13px;&quot;&gt;出发8:00&lt;/font&gt;&lt;div style=&quot;font-size: 13px;&quot;&gt;&lt;font style=&quot;font-size: 13px;&quot;&gt;&lt;font style=&quot;font-size: 13px;&quot;&gt;🚗 21&lt;/font&gt;&lt;font style=&quot;font-size: 13px;&quot;&gt;min&lt;/font&gt;&lt;br&gt;&lt;/font&gt;&lt;div style=&quot;&quot;&gt;&lt;font style=&quot;font-size: 13px;&quot;&gt;到达8:30&lt;/font&gt;&lt;/div&gt;&lt;/div&gt;" style="edgeLabel;html=1;align=center;verticalAlign=middle;resizable=0;points=[];sketch=1;hachureGap=4;jiggle=2;curveFitting=1;fontFamily=霞鹜文楷等宽;" connectable="0" vertex="1" parent="fj_l979_7TU4K1nSKBnY-1">
          <mxGeometry x="-0.34" y="-5" relative="1" as="geometry">
            <mxPoint x="17" y="-5" as="offset" />
          </mxGeometry>
        </mxCell>
        <mxCell id="fj_l979_7TU4K1nSKBnY-3" value="&lt;font&gt;&lt;span style=&quot;font-size: 16px;&quot;&gt;1、{住宿-中央火车站}{Via Giovanni Battista Sammartini}&lt;/span&gt;&lt;/font&gt;" style="rounded=0;whiteSpace=wrap;html=1;sketch=1;hachureGap=4;jiggle=2;curveFitting=1;fontFamily=霞鹜文楷等宽;fillColor=#d5e8d4;strokeColor=#82b366;fillStyle=solid;" vertex="1" parent="1">
          <mxGeometry x="95" y="122" width="210" height="60" as="geometry" />
        </mxCell>
        <mxCell id="fj_l979_7TU4K1nSKBnY-4" value="&lt;br&gt;&lt;font style=&quot;forced-color-adjust: none; color: rgb(0, 0, 0); font-style: normal; font-variant-ligatures: normal; font-variant-caps: normal; font-weight: 400; letter-spacing: normal; orphans: 2; text-align: center; text-indent: 0px; text-transform: none; widows: 2; word-spacing: 0px; -webkit-text-stroke-width: 0px; white-space: nowrap; text-decoration-thickness: initial; text-decoration-style: initial; text-decoration-color: initial; font-size: 13px;&quot;&gt;出发11:10&lt;/font&gt;&lt;div style=&quot;forced-color-adjust: none; color: rgb(0, 0, 0); font-style: normal; font-variant-ligatures: normal; font-variant-caps: normal; font-weight: 400; letter-spacing: normal; orphans: 2; text-align: center; text-indent: 0px; text-transform: none; widows: 2; word-spacing: 0px; -webkit-text-stroke-width: 0px; white-space: nowrap; text-decoration-thickness: initial; text-decoration-style: initial; text-decoration-color: initial; font-size: 13px;&quot;&gt;&lt;font style=&quot;forced-color-adjust: none; font-size: 13px;&quot;&gt;&lt;font style=&quot;forced-color-adjust: none; font-size: 13px;&quot;&gt;🚶‍♂️5&lt;/font&gt;&lt;font style=&quot;forced-color-adjust: none; font-size: 13px;&quot;&gt;min 350m&lt;/font&gt;&lt;br style=&quot;forced-color-adjust: none;&quot;&gt;&lt;/font&gt;&lt;div style=&quot;forced-color-adjust: none;&quot;&gt;&lt;font style=&quot;forced-color-adjust: none; font-size: 13px;&quot;&gt;到达11:20&lt;/font&gt;&lt;/div&gt;&lt;/div&gt;&lt;div&gt;&lt;br&gt;&lt;/div&gt;" style="edgeStyle=orthogonalEdgeStyle;rounded=0;sketch=1;hachureGap=4;jiggle=2;curveFitting=1;orthogonalLoop=1;jettySize=auto;html=1;fontFamily=霞鹜文楷等宽;labelBackgroundColor=default;" edge="1" parent="1" source="fj_l979_7TU4K1nSKBnY-5" target="fj_l979_7TU4K1nSKBnY-7">
          <mxGeometry relative="1" as="geometry" />
        </mxCell>
        <mxCell id="fj_l979_7TU4K1nSKBnY-5" value="&lt;font&gt;&lt;span style=&quot;font-size: 16px;&quot;&gt;18、{米蘭大教堂 米兰大教堂}&lt;/span&gt;&lt;/font&gt;&lt;div&gt;&lt;font&gt;&lt;span style=&quot;font-size: 16px;&quot;&gt;上午9:00需要参观两个小时&lt;/span&gt;&lt;/font&gt;&lt;/div&gt;" style="rounded=0;whiteSpace=wrap;html=1;sketch=1;hachureGap=4;jiggle=2;curveFitting=1;fontFamily=霞鹜文楷等宽;fillColor=#d5e8d4;strokeColor=#82b366;" vertex="1" parent="1">
          <mxGeometry x="451" y="112" width="220" height="70" as="geometry" />
        </mxCell>
        <mxCell id="fj_l979_7TU4K1nSKBnY-6" value="&lt;font&gt;&lt;font style=&quot;forced-color-adjust: none; color: rgb(0, 0, 0); font-style: normal; font-variant-ligatures: normal; font-variant-caps: normal; font-weight: 400; letter-spacing: normal; orphans: 2; text-align: center; text-indent: 0px; text-transform: none; widows: 2; word-spacing: 0px; -webkit-text-stroke-width: 0px; white-space: nowrap; text-decoration-thickness: initial; text-decoration-style: initial; text-decoration-color: initial; font-size: 13px;&quot;&gt;出发11:30&lt;/font&gt;&lt;/font&gt;&lt;div style=&quot;forced-color-adjust: none; color: rgb(0, 0, 0); font-style: normal; font-variant-ligatures: normal; font-variant-caps: normal; font-weight: 400; letter-spacing: normal; orphans: 2; text-align: center; text-indent: 0px; text-transform: none; widows: 2; word-spacing: 0px; -webkit-text-stroke-width: 0px; white-space: nowrap; text-decoration-thickness: initial; text-decoration-style: initial; text-decoration-color: initial; font-size: 13px;&quot;&gt;&lt;font style=&quot;forced-color-adjust: none; font-size: 13px;&quot;&gt;&lt;font style=&quot;forced-color-adjust: none; font-size: 13px;&quot;&gt;&lt;font&gt;🚶‍♂️&lt;/font&gt;&lt;font&gt;&amp;nbsp;4&lt;/font&gt;&lt;/font&gt;&lt;font style=&quot;forced-color-adjust: none; font-size: 13px;&quot;&gt;min 260&lt;/font&gt;&lt;br style=&quot;forced-color-adjust: none;&quot;&gt;&lt;/font&gt;&lt;div style=&quot;forced-color-adjust: none;&quot;&gt;&lt;font style=&quot;forced-color-adjust: none; font-size: 13px;&quot;&gt;到达11:40&lt;/font&gt;&lt;/div&gt;&lt;/div&gt;" style="edgeStyle=orthogonalEdgeStyle;rounded=0;sketch=1;hachureGap=4;jiggle=2;curveFitting=1;orthogonalLoop=1;jettySize=auto;html=1;fontFamily=霞鹜文楷等宽;" edge="1" parent="1" source="fj_l979_7TU4K1nSKBnY-7" target="fj_l979_7TU4K1nSKBnY-9">
          <mxGeometry relative="1" as="geometry" />
        </mxCell>
        <mxCell id="fj_l979_7TU4K1nSKBnY-7" value="&lt;font&gt;&lt;span style=&quot;font-size: 16px;&quot;&gt;19、{咖啡馆-米兰大教堂}{Caffè Napoli Giardino}&lt;/span&gt;&lt;/font&gt;" style="rounded=0;whiteSpace=wrap;html=1;sketch=1;hachureGap=4;jiggle=2;curveFitting=1;fontFamily=霞鹜文楷等宽;fillColor=#d5e8d4;strokeColor=#82b366;" vertex="1" parent="1">
          <mxGeometry x="805" y="117" width="220" height="70" as="geometry" />
        </mxCell>
        <mxCell id="fj_l979_7TU4K1nSKBnY-8" value="&lt;div&gt;&lt;div&gt;11:50出发&lt;/div&gt;&lt;div&gt;🚶‍♂️21min 1.5km &amp;amp; 🚌11min16路每9min&lt;/div&gt;&lt;/div&gt;&lt;div&gt;12:15到达&lt;/div&gt;" style="edgeStyle=orthogonalEdgeStyle;rounded=0;sketch=1;hachureGap=4;jiggle=2;curveFitting=1;orthogonalLoop=1;jettySize=auto;html=1;fontFamily=霞鹜文楷等宽;" edge="1" parent="1" source="fj_l979_7TU4K1nSKBnY-9" target="fj_l979_7TU4K1nSKBnY-11">
          <mxGeometry x="0.0049" relative="1" as="geometry">
            <mxPoint as="offset" />
          </mxGeometry>
        </mxCell>
        <mxCell id="fj_l979_7TU4K1nSKBnY-9" value="&lt;font&gt;&lt;span style=&quot;font-size: 16px;&quot;&gt;20、{帕尼尼面包10点-米兰大教堂⭐}{All&#39;Antico Vinaio}&lt;/span&gt;&lt;/font&gt;" style="rounded=0;whiteSpace=wrap;html=1;sketch=1;hachureGap=4;jiggle=2;curveFitting=1;fontFamily=霞鹜文楷等宽;fillColor=#d5e8d4;strokeColor=#82b366;" vertex="1" parent="1">
          <mxGeometry x="924" y="267" width="220" height="70" as="geometry" />
        </mxCell>
        <mxCell id="fj_l979_7TU4K1nSKBnY-37" value="12:35出发&lt;div&gt;🚶‍♂️ 2omin 1.5km &amp;amp; 🚗18min&lt;/div&gt;&lt;div&gt;13:00到达&lt;/div&gt;" style="edgeStyle=orthogonalEdgeStyle;shape=connector;rounded=0;sketch=1;hachureGap=4;jiggle=2;curveFitting=1;orthogonalLoop=1;jettySize=auto;html=1;exitX=0;exitY=0.5;exitDx=0;exitDy=0;strokeColor=default;align=center;verticalAlign=middle;fontFamily=霞鹜文楷等宽;fontSize=11;fontColor=default;labelBackgroundColor=default;endArrow=classic;" edge="1" parent="1" source="fj_l979_7TU4K1nSKBnY-11" target="fj_l979_7TU4K1nSKBnY-15">
          <mxGeometry relative="1" as="geometry" />
        </mxCell>
        <mxCell id="fj_l979_7TU4K1nSKBnY-11" value="&lt;font&gt;&lt;span style=&quot;font-size: 16px;&quot;&gt;21、{最后的晚餐}{最后的晚餐}&lt;/span&gt;&lt;/font&gt;" style="rounded=0;whiteSpace=wrap;html=1;sketch=1;hachureGap=4;jiggle=2;curveFitting=1;fontFamily=霞鹜文楷等宽;fillColor=#d5e8d4;strokeColor=#82b366;" vertex="1" parent="1">
          <mxGeometry x="500" y="323" width="220" height="70" as="geometry" />
        </mxCell>
        <mxCell id="fj_l979_7TU4K1nSKBnY-14" value="&lt;font style=&quot;forced-color-adjust: none; color: rgb(0, 0, 0); font-style: normal; font-variant-ligatures: normal; font-variant-caps: normal; font-weight: 400; letter-spacing: normal; orphans: 2; text-align: center; text-indent: 0px; text-transform: none; widows: 2; word-spacing: 0px; -webkit-text-stroke-width: 0px; white-space: nowrap; text-decoration-thickness: initial; text-decoration-style: initial; text-decoration-color: initial; font-size: 13px;&quot;&gt;出发14:15&lt;/font&gt;&lt;div style=&quot;forced-color-adjust: none; color: rgb(0, 0, 0); font-style: normal; font-variant-ligatures: normal; font-variant-caps: normal; font-weight: 400; letter-spacing: normal; orphans: 2; text-align: center; text-indent: 0px; text-transform: none; widows: 2; word-spacing: 0px; -webkit-text-stroke-width: 0px; white-space: nowrap; text-decoration-thickness: initial; text-decoration-style: initial; text-decoration-color: initial; font-size: 13px;&quot;&gt;&lt;font style=&quot;forced-color-adjust: none; font-size: 13px;&quot;&gt;&lt;font style=&quot;forced-color-adjust: none; font-size: 13px;&quot;&gt;🚶‍♂️3&lt;/font&gt;&lt;font style=&quot;forced-color-adjust: none; font-size: 13px;&quot;&gt;min 230m&lt;/font&gt;&lt;br style=&quot;forced-color-adjust: none;&quot;&gt;&lt;/font&gt;&lt;div style=&quot;forced-color-adjust: none;&quot;&gt;&lt;font style=&quot;forced-color-adjust: none; font-size: 13px;&quot;&gt;到达14:25&lt;/font&gt;&lt;/div&gt;&lt;/div&gt;" style="edgeStyle=orthogonalEdgeStyle;rounded=0;sketch=1;hachureGap=4;jiggle=2;curveFitting=1;orthogonalLoop=1;jettySize=auto;html=1;fontFamily=霞鹜文楷等宽;" edge="1" parent="1" source="fj_l979_7TU4K1nSKBnY-15" target="fj_l979_7TU4K1nSKBnY-17">
          <mxGeometry relative="1" as="geometry" />
        </mxCell>
        <mxCell id="fj_l979_7TU4K1nSKBnY-15" value="&lt;font&gt;&lt;span style=&quot;font-size: 16px;&quot;&gt;23、{意面12点}{意面12点}&lt;/span&gt;&lt;/font&gt;" style="rounded=0;whiteSpace=wrap;html=1;sketch=1;hachureGap=4;jiggle=2;curveFitting=1;fontFamily=霞鹜文楷等宽;fillColor=#d5e8d4;strokeColor=#82b366;" vertex="1" parent="1">
          <mxGeometry x="87" y="267" width="220" height="70" as="geometry" />
        </mxCell>
        <mxCell id="fj_l979_7TU4K1nSKBnY-16" value="&lt;br&gt;&lt;font style=&quot;forced-color-adjust: none; color: rgb(0, 0, 0); font-style: normal; font-variant-ligatures: normal; font-variant-caps: normal; font-weight: 400; letter-spacing: normal; orphans: 2; text-align: center; text-indent: 0px; text-transform: none; widows: 2; word-spacing: 0px; -webkit-text-stroke-width: 0px; white-space: nowrap; text-decoration-thickness: initial; text-decoration-style: initial; text-decoration-color: initial; font-size: 13px;&quot;&gt;出发14:35&lt;/font&gt;&lt;div style=&quot;forced-color-adjust: none; color: rgb(0, 0, 0); font-style: normal; font-variant-ligatures: normal; font-variant-caps: normal; font-weight: 400; letter-spacing: normal; orphans: 2; text-align: center; text-indent: 0px; text-transform: none; widows: 2; word-spacing: 0px; -webkit-text-stroke-width: 0px; white-space: nowrap; text-decoration-thickness: initial; text-decoration-style: initial; text-decoration-color: initial; font-size: 13px;&quot;&gt;&lt;font style=&quot;forced-color-adjust: none; font-size: 13px;&quot;&gt;&lt;font style=&quot;forced-color-adjust: none; font-size: 13px;&quot;&gt;🚶‍♂️4&lt;/font&gt;&lt;font style=&quot;forced-color-adjust: none; font-size: 13px;&quot;&gt;min 300m&lt;/font&gt;&lt;br style=&quot;forced-color-adjust: none;&quot;&gt;&lt;/font&gt;&lt;div style=&quot;forced-color-adjust: none;&quot;&gt;&lt;font style=&quot;forced-color-adjust: none; font-size: 13px;&quot;&gt;到达14:50&lt;/font&gt;&lt;/div&gt;&lt;/div&gt;" style="edgeStyle=orthogonalEdgeStyle;rounded=0;sketch=1;hachureGap=4;jiggle=2;curveFitting=1;orthogonalLoop=1;jettySize=auto;html=1;fontFamily=霞鹜文楷等宽;" edge="1" parent="1" source="fj_l979_7TU4K1nSKBnY-17" target="fj_l979_7TU4K1nSKBnY-19">
          <mxGeometry relative="1" as="geometry" />
        </mxCell>
        <mxCell id="fj_l979_7TU4K1nSKBnY-17" value="&lt;font&gt;&lt;span style=&quot;font-size: 16px;&quot;&gt;24、{糕点2}{Égalité}&lt;/span&gt;&lt;/font&gt;" style="rounded=0;whiteSpace=wrap;html=1;sketch=1;hachureGap=4;jiggle=2;curveFitting=1;fontFamily=霞鹜文楷等宽;fillColor=#d5e8d4;strokeColor=#82b366;" vertex="1" parent="1">
          <mxGeometry x="80" y="468" width="220" height="70" as="geometry" />
        </mxCell>
        <mxCell id="fj_l979_7TU4K1nSKBnY-18" value="&lt;font style=&quot;forced-color-adjust: none; color: rgb(0, 0, 0); font-style: normal; font-variant-ligatures: normal; font-variant-caps: normal; font-weight: 400; letter-spacing: normal; orphans: 2; text-align: center; text-indent: 0px; text-transform: none; widows: 2; word-spacing: 0px; -webkit-text-stroke-width: 0px; white-space: nowrap; text-decoration-thickness: initial; text-decoration-style: initial; text-decoration-color: initial; font-size: 13px;&quot;&gt;出发15:10&lt;/font&gt;&lt;div style=&quot;forced-color-adjust: none; color: rgb(0, 0, 0); font-style: normal; font-variant-ligatures: normal; font-variant-caps: normal; font-weight: 400; letter-spacing: normal; orphans: 2; text-align: center; text-indent: 0px; text-transform: none; widows: 2; word-spacing: 0px; -webkit-text-stroke-width: 0px; white-space: nowrap; text-decoration-thickness: initial; text-decoration-style: initial; text-decoration-color: initial; font-size: 13px;&quot;&gt;&lt;font style=&quot;forced-color-adjust: none; font-size: 13px;&quot;&gt;&lt;font style=&quot;forced-color-adjust: none; font-size: 13px;&quot;&gt;🚶‍♂️14&lt;/font&gt;&lt;font style=&quot;forced-color-adjust: none; font-size: 13px;&quot;&gt;min 1000m&lt;/font&gt;&lt;br style=&quot;forced-color-adjust: none;&quot;&gt;&lt;/font&gt;&lt;div style=&quot;forced-color-adjust: none;&quot;&gt;&lt;font style=&quot;forced-color-adjust: none; font-size: 13px;&quot;&gt;到达15:30&lt;/font&gt;&lt;/div&gt;&lt;/div&gt;" style="edgeStyle=orthogonalEdgeStyle;rounded=0;sketch=1;hachureGap=4;jiggle=2;curveFitting=1;orthogonalLoop=1;jettySize=auto;html=1;fontFamily=霞鹜文楷等宽;" edge="1" parent="1" source="fj_l979_7TU4K1nSKBnY-19" target="fj_l979_7TU4K1nSKBnY-21">
          <mxGeometry relative="1" as="geometry" />
        </mxCell>
        <mxCell id="fj_l979_7TU4K1nSKBnY-19" value="&lt;font&gt;&lt;span style=&quot;font-size: 16px;&quot;&gt;25、{皮包-和平门}{Benheart Milano}&lt;/span&gt;&lt;/font&gt;" style="rounded=0;whiteSpace=wrap;html=1;sketch=1;hachureGap=4;jiggle=2;curveFitting=1;fontFamily=霞鹜文楷等宽;fillColor=#d5e8d4;strokeColor=#82b366;" vertex="1" parent="1">
          <mxGeometry x="477" y="468" width="220" height="70" as="geometry" />
        </mxCell>
        <mxCell id="fj_l979_7TU4K1nSKBnY-20" value="&lt;font style=&quot;forced-color-adjust: none; color: rgb(0, 0, 0); font-style: normal; font-variant-ligatures: normal; font-variant-caps: normal; font-weight: 400; letter-spacing: normal; orphans: 2; text-align: center; text-indent: 0px; text-transform: none; widows: 2; word-spacing: 0px; -webkit-text-stroke-width: 0px; white-space: nowrap; text-decoration-thickness: initial; text-decoration-style: initial; text-decoration-color: initial; font-size: 13px;&quot;&gt;出发16:05&lt;/font&gt;&lt;div style=&quot;forced-color-adjust: none; color: rgb(0, 0, 0); font-style: normal; font-variant-ligatures: normal; font-variant-caps: normal; font-weight: 400; letter-spacing: normal; orphans: 2; text-align: center; text-indent: 0px; text-transform: none; widows: 2; word-spacing: 0px; -webkit-text-stroke-width: 0px; white-space: nowrap; text-decoration-thickness: initial; text-decoration-style: initial; text-decoration-color: initial; font-size: 13px;&quot;&gt;&lt;font style=&quot;forced-color-adjust: none; font-size: 13px;&quot;&gt;&lt;font style=&quot;forced-color-adjust: none; font-size: 13px;&quot;&gt;🚶‍♂️13&lt;/font&gt;&lt;font style=&quot;forced-color-adjust: none; font-size: 13px;&quot;&gt;min 900m&lt;/font&gt;&lt;br style=&quot;forced-color-adjust: none;&quot;&gt;&lt;/font&gt;&lt;div style=&quot;forced-color-adjust: none;&quot;&gt;&lt;font style=&quot;forced-color-adjust: none; font-size: 13px;&quot;&gt;到达16:25&lt;/font&gt;&lt;/div&gt;&lt;/div&gt;" style="edgeStyle=orthogonalEdgeStyle;rounded=0;sketch=1;hachureGap=4;jiggle=2;curveFitting=1;orthogonalLoop=1;jettySize=auto;html=1;fontFamily=霞鹜文楷等宽;" edge="1" parent="1" source="fj_l979_7TU4K1nSKBnY-21" target="fj_l979_7TU4K1nSKBnY-23">
          <mxGeometry x="-0.0004" relative="1" as="geometry">
            <Array as="points">
              <mxPoint x="971" y="653" />
            </Array>
            <mxPoint as="offset" />
          </mxGeometry>
        </mxCell>
        <mxCell id="fj_l979_7TU4K1nSKBnY-21" value="&lt;font&gt;&lt;span style=&quot;font-size: 16px;&quot;&gt;26、{和平之门}{和平之门}&lt;/span&gt;&lt;/font&gt;" style="rounded=0;whiteSpace=wrap;html=1;sketch=1;hachureGap=4;jiggle=2;curveFitting=1;fontFamily=霞鹜文楷等宽;fillColor=#d5e8d4;strokeColor=#82b366;" vertex="1" parent="1">
          <mxGeometry x="861" y="474" width="220" height="70" as="geometry" />
        </mxCell>
        <mxCell id="fj_l979_7TU4K1nSKBnY-38" style="edgeStyle=orthogonalEdgeStyle;shape=connector;rounded=0;sketch=1;hachureGap=4;jiggle=2;curveFitting=1;orthogonalLoop=1;jettySize=auto;html=1;exitX=0;exitY=0.5;exitDx=0;exitDy=0;strokeColor=default;align=center;verticalAlign=middle;fontFamily=霞鹜文楷等宽;fontSize=11;fontColor=default;labelBackgroundColor=default;endArrow=classic;entryX=0;entryY=0.5;entryDx=0;entryDy=0;" edge="1" parent="1" source="fj_l979_7TU4K1nSKBnY-23" target="fj_l979_7TU4K1nSKBnY-3">
          <mxGeometry relative="1" as="geometry">
            <mxPoint x="81.99999564034601" y="147.57143729073664" as="targetPoint" />
            <Array as="points">
              <mxPoint x="56" y="653" />
              <mxPoint x="56" y="152" />
            </Array>
          </mxGeometry>
        </mxCell>
        <mxCell id="r8ujROenBvxXqxqs_gsD-3" value="&lt;div&gt;&lt;font face=&quot;霞鹜文楷等宽&quot;&gt;出发18:30&lt;/font&gt;&lt;/div&gt;&lt;div&gt;&lt;font face=&quot;pzamSd01XmEuT_m0Rua4&quot;&gt;🚶‍♂️ &lt;/font&gt;&lt;font face=&quot;霞鹜文楷等宽&quot;&gt;39min 3km&lt;/font&gt;&lt;/div&gt;&lt;div&gt;&lt;font face=&quot;pzamSd01XmEuT_m0Rua4&quot;&gt;🚌 &lt;/font&gt;&lt;font face=&quot;霞鹜文楷等宽&quot;&gt;23min10路&lt;/font&gt;&lt;/div&gt;&lt;div&gt;&lt;font face=&quot;pzamSd01XmEuT_m0Rua4&quot;&gt;🚗 &lt;/font&gt;&lt;font face=&quot;霞鹜文楷等宽&quot;&gt;29minM2&lt;/font&gt;&lt;/div&gt;&lt;div&gt;&lt;font face=&quot;霞鹜文楷等宽&quot;&gt;到达19:10&lt;/font&gt;&lt;/div&gt;" style="edgeLabel;html=1;align=center;verticalAlign=middle;resizable=0;points=[];sketch=1;hachureGap=4;jiggle=2;curveFitting=1;fontFamily=Architects Daughter;fontSource=https%3A%2F%2Ffonts.googleapis.com%2Fcss%3Ffamily%3DArchitects%2BDaughter;" connectable="0" vertex="1" parent="fj_l979_7TU4K1nSKBnY-38">
          <mxGeometry x="0.036" relative="1" as="geometry">
            <mxPoint as="offset" />
          </mxGeometry>
        </mxCell>
        <mxCell id="fj_l979_7TU4K1nSKBnY-23" value="&lt;font&gt;&lt;span style=&quot;font-size: 16px;&quot;&gt;27、{米兰唐人街}{米兰唐人街}&lt;/span&gt;&lt;/font&gt;" style="rounded=0;whiteSpace=wrap;html=1;sketch=1;hachureGap=4;jiggle=2;curveFitting=1;fontFamily=霞鹜文楷等宽;fillColor=#d5e8d4;strokeColor=#82b366;fillStyle=solid;" vertex="1" parent="1">
          <mxGeometry x="102" y="618" width="220" height="70" as="geometry" />
        </mxCell>
        <mxCell id="fj_l979_7TU4K1nSKBnY-36" value="&lt;font style=&quot;font-size: 24px;&quot; color=&quot;#ff0000&quot;&gt;米兰第二天&lt;/font&gt;" style="ellipse;shape=cloud;whiteSpace=wrap;html=1;sketch=1;hachureGap=4;jiggle=2;curveFitting=1;fontFamily=霞鹜文楷等宽;fontSize=11;fontColor=default;labelBackgroundColor=none;" vertex="1" parent="1">
          <mxGeometry x="517" y="7" width="172" height="85" as="geometry" />
        </mxCell>
      </root>
    </mxGraphModel>
  </diagram>
  <diagram id="PL7iSJnh6H7WEnGPHiSF" name="威尼斯第一天">
    <mxGraphModel grid="0" page="1" gridSize="10" guides="1" tooltips="1" connect="1" arrows="1" fold="1" pageScale="1" pageWidth="1169" pageHeight="827" math="0" shadow="0">
      <root>
        <mxCell id="0" />
        <mxCell id="1" parent="0" />
        <mxCell id="QQjJts4zOjsXDl-x4-YD-2" value="" style="edgeStyle=orthogonalEdgeStyle;rounded=0;sketch=1;hachureGap=4;jiggle=2;curveFitting=1;orthogonalLoop=1;jettySize=auto;html=1;fontFamily=Architects Daughter;fontSource=https%3A%2F%2Ffonts.googleapis.com%2Fcss%3Ffamily%3DArchitects%2BDaughter;" edge="1" parent="1" source="NQUvnFWEInyqKRexZBRd-1" target="QQjJts4zOjsXDl-x4-YD-1">
          <mxGeometry relative="1" as="geometry" />
        </mxCell>
        <mxCell id="NQUvnFWEInyqKRexZBRd-1" value="&lt;p style=&quot;line-height: 100%; font-size: 16px;&quot;&gt;&lt;font style=&quot;font-size: 16px;&quot;&gt;&lt;span style=&quot;font-size: 16px;&quot;&gt;1、{住宿}{Via Caposile,9}&lt;/span&gt;&lt;/font&gt;&lt;/p&gt;" style="rounded=1;whiteSpace=wrap;html=1;sketch=1;curveFitting=1;jiggle=2;fillColor=#ffe6cc;strokeColor=#d79b00;fillStyle=auto;hachureGap=-1;sketchStyle=rough;treeFolding=0;treeMoving=0;enumerate=0;fontSize=16;align=center;fontFamily=霞鹜文楷等宽;" vertex="1" parent="1">
          <mxGeometry x="129" y="110" width="118" height="44" as="geometry" />
        </mxCell>
        <mxCell id="QQjJts4zOjsXDl-x4-YD-30" value="" style="edgeStyle=orthogonalEdgeStyle;rounded=0;sketch=1;hachureGap=4;jiggle=2;curveFitting=1;orthogonalLoop=1;jettySize=auto;html=1;fontFamily=Architects Daughter;fontSource=https%3A%2F%2Ffonts.googleapis.com%2Fcss%3Ffamily%3DArchitects%2BDaughter;" edge="1" parent="1" source="QQjJts4zOjsXDl-x4-YD-1" target="QQjJts4zOjsXDl-x4-YD-29">
          <mxGeometry relative="1" as="geometry" />
        </mxCell>
        <mxCell id="QQjJts4zOjsXDl-x4-YD-1" value="&lt;p style=&quot;line-height: 100%;&quot;&gt;2、{提拉米苏12点}{PASTA &amp;amp; PIZZA e non solo}&lt;/p&gt;" style="rounded=1;whiteSpace=wrap;html=1;sketch=1;curveFitting=1;jiggle=2;fillColor=#ffe6cc;strokeColor=#d79b00;fillStyle=auto;hachureGap=-1;sketchStyle=rough;treeFolding=0;treeMoving=0;enumerate=0;fontSize=16;align=center;fontFamily=霞鹜文楷等宽;" vertex="1" parent="1">
          <mxGeometry x="369" y="110" width="187" height="44" as="geometry" />
        </mxCell>
        <mxCell id="QQjJts4zOjsXDl-x4-YD-32" value="" style="edgeStyle=orthogonalEdgeStyle;rounded=0;sketch=1;hachureGap=4;jiggle=2;curveFitting=1;orthogonalLoop=1;jettySize=auto;html=1;fontFamily=Architects Daughter;fontSource=https%3A%2F%2Ffonts.googleapis.com%2Fcss%3Ffamily%3DArchitects%2BDaughter;horizontal=0;jumpStyle=arc;" edge="1" parent="1" source="QQjJts4zOjsXDl-x4-YD-29" target="QQjJts4zOjsXDl-x4-YD-31">
          <mxGeometry relative="1" as="geometry" />
        </mxCell>
        <mxCell id="QQjJts4zOjsXDl-x4-YD-29" value="&lt;p style=&quot;line-height: 100%;&quot;&gt;3、{DFS}{DFS}&lt;/p&gt;" style="rounded=1;whiteSpace=wrap;html=1;sketch=1;curveFitting=1;jiggle=2;fillColor=#ffe6cc;strokeColor=#d79b00;fillStyle=auto;hachureGap=-1;sketchStyle=rough;treeFolding=0;treeMoving=0;enumerate=0;fontSize=16;align=center;fontFamily=霞鹜文楷等宽;" vertex="1" parent="1">
          <mxGeometry x="636" y="110" width="187" height="44" as="geometry" />
        </mxCell>
        <mxCell id="QQjJts4zOjsXDl-x4-YD-34" value="" style="edgeStyle=orthogonalEdgeStyle;rounded=0;sketch=1;hachureGap=4;jiggle=2;curveFitting=1;orthogonalLoop=1;jettySize=auto;html=1;fontFamily=霞鹜文楷等宽;" edge="1" parent="1" source="QQjJts4zOjsXDl-x4-YD-31" target="QQjJts4zOjsXDl-x4-YD-33">
          <mxGeometry relative="1" as="geometry" />
        </mxCell>
        <mxCell id="QQjJts4zOjsXDl-x4-YD-31" value="&lt;p style=&quot;line-height: 100%;&quot;&gt;4、{包包}{Pelletteria Veneta}&lt;/p&gt;" style="rounded=1;whiteSpace=wrap;html=1;sketch=1;curveFitting=1;jiggle=2;fillColor=#ffe6cc;strokeColor=#d79b00;fillStyle=auto;hachureGap=-1;sketchStyle=rough;treeFolding=0;treeMoving=0;enumerate=0;fontSize=16;align=center;fontFamily=霞鹜文楷等宽;" vertex="1" parent="1">
          <mxGeometry x="903" y="110" width="187" height="44" as="geometry" />
        </mxCell>
        <mxCell id="QQjJts4zOjsXDl-x4-YD-36" value="" style="edgeStyle=orthogonalEdgeStyle;rounded=0;sketch=1;hachureGap=4;jiggle=2;curveFitting=1;orthogonalLoop=1;jettySize=auto;html=1;fontFamily=Architects Daughter;fontSource=https%3A%2F%2Ffonts.googleapis.com%2Fcss%3Ffamily%3DArchitects%2BDaughter;" edge="1" parent="1" source="QQjJts4zOjsXDl-x4-YD-33" target="QQjJts4zOjsXDl-x4-YD-35">
          <mxGeometry relative="1" as="geometry" />
        </mxCell>
        <mxCell id="QQjJts4zOjsXDl-x4-YD-33" value="&lt;p style=&quot;line-height: 100%;&quot;&gt;5、{冰激凌}{Suso}&lt;/p&gt;" style="rounded=1;whiteSpace=wrap;html=1;sketch=1;curveFitting=1;jiggle=2;fillColor=#ffe6cc;strokeColor=#d79b00;fillStyle=auto;hachureGap=-1;sketchStyle=rough;treeFolding=0;treeMoving=0;enumerate=0;fontSize=16;align=center;fontFamily=霞鹜文楷等宽;" vertex="1" parent="1">
          <mxGeometry x="911" y="335" width="187" height="44" as="geometry" />
        </mxCell>
        <mxCell id="QQjJts4zOjsXDl-x4-YD-38" value="" style="edgeStyle=orthogonalEdgeStyle;rounded=0;sketch=1;hachureGap=4;jiggle=2;curveFitting=1;orthogonalLoop=1;jettySize=auto;html=1;fontFamily=Architects Daughter;fontSource=https%3A%2F%2Ffonts.googleapis.com%2Fcss%3Ffamily%3DArchitects%2BDaughter;" edge="1" parent="1" source="QQjJts4zOjsXDl-x4-YD-35" target="QQjJts4zOjsXDl-x4-YD-37">
          <mxGeometry relative="1" as="geometry" />
        </mxCell>
        <mxCell id="QQjJts4zOjsXDl-x4-YD-35" value="&lt;p style=&quot;line-height: 100%;&quot;&gt;6、{皮包}{Piumelli}&lt;/p&gt;" style="rounded=1;whiteSpace=wrap;html=1;sketch=1;curveFitting=1;jiggle=2;fillColor=#ffe6cc;strokeColor=#d79b00;fillStyle=auto;hachureGap=-1;sketchStyle=rough;treeFolding=0;treeMoving=0;enumerate=0;fontSize=16;align=center;fontFamily=霞鹜文楷等宽;" vertex="1" parent="1">
          <mxGeometry x="644" y="335" width="187" height="44" as="geometry" />
        </mxCell>
        <mxCell id="QQjJts4zOjsXDl-x4-YD-40" value="" style="edgeStyle=orthogonalEdgeStyle;rounded=0;sketch=1;hachureGap=4;jiggle=2;curveFitting=1;orthogonalLoop=1;jettySize=auto;html=1;fontFamily=Architects Daughter;fontSource=https%3A%2F%2Ffonts.googleapis.com%2Fcss%3Ffamily%3DArchitects%2BDaughter;" edge="1" parent="1" source="QQjJts4zOjsXDl-x4-YD-37" target="QQjJts4zOjsXDl-x4-YD-39">
          <mxGeometry relative="1" as="geometry" />
        </mxCell>
        <mxCell id="QQjJts4zOjsXDl-x4-YD-37" value="&lt;p style=&quot;line-height: 100%;&quot;&gt;7、{圣马可广场}{圣马可广场}&lt;/p&gt;" style="rounded=1;whiteSpace=wrap;html=1;sketch=1;curveFitting=1;jiggle=2;fillColor=#ffe6cc;strokeColor=#d79b00;fillStyle=auto;hachureGap=-1;sketchStyle=rough;treeFolding=0;treeMoving=0;enumerate=0;fontSize=16;align=center;fontFamily=霞鹜文楷等宽;" vertex="1" parent="1">
          <mxGeometry x="377" y="335" width="187" height="44" as="geometry" />
        </mxCell>
        <mxCell id="QQjJts4zOjsXDl-x4-YD-42" value="" style="edgeStyle=orthogonalEdgeStyle;rounded=0;sketch=1;hachureGap=4;jiggle=2;curveFitting=1;orthogonalLoop=1;jettySize=auto;html=1;fontFamily=Architects Daughter;fontSource=https%3A%2F%2Ffonts.googleapis.com%2Fcss%3Ffamily%3DArchitects%2BDaughter;" edge="1" parent="1" source="QQjJts4zOjsXDl-x4-YD-39" target="QQjJts4zOjsXDl-x4-YD-41">
          <mxGeometry relative="1" as="geometry" />
        </mxCell>
        <mxCell id="QQjJts4zOjsXDl-x4-YD-39" value="&lt;p style=&quot;line-height: 100%;&quot;&gt;8、{弗洛里安咖啡馆}{弗洛里安咖啡馆}&lt;/p&gt;" style="rounded=1;whiteSpace=wrap;html=1;sketch=1;curveFitting=1;jiggle=2;fillColor=#ffe6cc;strokeColor=#d79b00;fillStyle=auto;hachureGap=-1;sketchStyle=rough;treeFolding=0;treeMoving=0;enumerate=0;fontSize=16;align=center;fontFamily=霞鹜文楷等宽;" vertex="1" parent="1">
          <mxGeometry x="110" y="335" width="187" height="44" as="geometry" />
        </mxCell>
        <mxCell id="QQjJts4zOjsXDl-x4-YD-44" value="" style="edgeStyle=orthogonalEdgeStyle;rounded=0;sketch=1;hachureGap=4;jiggle=2;curveFitting=1;orthogonalLoop=1;jettySize=auto;html=1;fontFamily=Architects Daughter;fontSource=https%3A%2F%2Ffonts.googleapis.com%2Fcss%3Ffamily%3DArchitects%2BDaughter;" edge="1" parent="1" source="QQjJts4zOjsXDl-x4-YD-41" target="QQjJts4zOjsXDl-x4-YD-43">
          <mxGeometry relative="1" as="geometry" />
        </mxCell>
        <mxCell id="QQjJts4zOjsXDl-x4-YD-41" value="&lt;p style=&quot;line-height: 100%;&quot;&gt;9、{香奈儿}{香奈儿}&lt;/p&gt;" style="rounded=1;whiteSpace=wrap;html=1;sketch=1;curveFitting=1;jiggle=2;fillColor=#ffe6cc;strokeColor=#d79b00;fillStyle=auto;hachureGap=-1;sketchStyle=rough;treeFolding=0;treeMoving=0;enumerate=0;fontSize=16;align=center;fontFamily=霞鹜文楷等宽;" vertex="1" parent="1">
          <mxGeometry x="107" y="535" width="187" height="44" as="geometry" />
        </mxCell>
        <mxCell id="QQjJts4zOjsXDl-x4-YD-46" value="" style="edgeStyle=orthogonalEdgeStyle;rounded=0;sketch=1;hachureGap=4;jiggle=2;curveFitting=1;orthogonalLoop=1;jettySize=auto;html=1;fontFamily=Architects Daughter;fontSource=https%3A%2F%2Ffonts.googleapis.com%2Fcss%3Ffamily%3DArchitects%2BDaughter;" edge="1" parent="1" source="QQjJts4zOjsXDl-x4-YD-43" target="QQjJts4zOjsXDl-x4-YD-45">
          <mxGeometry relative="1" as="geometry" />
        </mxCell>
        <mxCell id="QQjJts4zOjsXDl-x4-YD-43" value="&lt;p style=&quot;line-height: 100%;&quot;&gt;10、{香奈儿}{CHANEL}&lt;/p&gt;" style="rounded=1;whiteSpace=wrap;html=1;sketch=1;curveFitting=1;jiggle=2;fillColor=#ffe6cc;strokeColor=#d79b00;fillStyle=auto;hachureGap=-1;sketchStyle=rough;treeFolding=0;treeMoving=0;enumerate=0;fontSize=16;align=center;fontFamily=霞鹜文楷等宽;" vertex="1" parent="1">
          <mxGeometry x="374" y="535" width="187" height="44" as="geometry" />
        </mxCell>
        <mxCell id="QQjJts4zOjsXDl-x4-YD-48" value="" style="edgeStyle=orthogonalEdgeStyle;rounded=0;sketch=1;hachureGap=4;jiggle=2;curveFitting=1;orthogonalLoop=1;jettySize=auto;html=1;fontFamily=Architects Daughter;fontSource=https%3A%2F%2Ffonts.googleapis.com%2Fcss%3Ffamily%3DArchitects%2BDaughter;" edge="1" parent="1" source="QQjJts4zOjsXDl-x4-YD-45" target="QQjJts4zOjsXDl-x4-YD-47">
          <mxGeometry relative="1" as="geometry" />
        </mxCell>
        <mxCell id="QQjJts4zOjsXDl-x4-YD-45" value="&lt;p style=&quot;line-height: 100%;&quot;&gt;11、{Lv皮包}{LV包包}&lt;/p&gt;" style="rounded=1;whiteSpace=wrap;html=1;sketch=1;curveFitting=1;jiggle=2;fillColor=#ffe6cc;strokeColor=#d79b00;fillStyle=auto;hachureGap=-1;sketchStyle=rough;treeFolding=0;treeMoving=0;enumerate=0;fontSize=16;align=center;fontFamily=霞鹜文楷等宽;" vertex="1" parent="1">
          <mxGeometry x="641" y="535" width="187" height="44" as="geometry" />
        </mxCell>
        <mxCell id="QQjJts4zOjsXDl-x4-YD-50" value="" style="edgeStyle=orthogonalEdgeStyle;rounded=0;sketch=1;hachureGap=4;jiggle=2;curveFitting=1;orthogonalLoop=1;jettySize=auto;html=1;fontFamily=Architects Daughter;fontSource=https%3A%2F%2Ffonts.googleapis.com%2Fcss%3Ffamily%3DArchitects%2BDaughter;" edge="1" parent="1" source="QQjJts4zOjsXDl-x4-YD-47" target="QQjJts4zOjsXDl-x4-YD-49">
          <mxGeometry relative="1" as="geometry" />
        </mxCell>
        <mxCell id="QQjJts4zOjsXDl-x4-YD-47" value="&lt;p style=&quot;line-height: 100%;&quot;&gt;12、{香奈儿}{CHANEL Venice Store}&lt;/p&gt;" style="rounded=1;whiteSpace=wrap;html=1;sketch=1;curveFitting=1;jiggle=2;fillColor=#ffe6cc;strokeColor=#d79b00;fillStyle=auto;hachureGap=-1;sketchStyle=rough;treeFolding=0;treeMoving=0;enumerate=0;fontSize=16;align=center;fontFamily=霞鹜文楷等宽;" vertex="1" parent="1">
          <mxGeometry x="908" y="535" width="187" height="44" as="geometry" />
        </mxCell>
        <mxCell id="QQjJts4zOjsXDl-x4-YD-51" value="" style="edgeStyle=orthogonalEdgeStyle;rounded=0;sketch=1;hachureGap=4;jiggle=2;curveFitting=1;orthogonalLoop=1;jettySize=auto;html=1;fontFamily=Architects Daughter;fontSource=https%3A%2F%2Ffonts.googleapis.com%2Fcss%3Ffamily%3DArchitects%2BDaughter;" edge="1" parent="1" source="QQjJts4zOjsXDl-x4-YD-49" target="NQUvnFWEInyqKRexZBRd-1">
          <mxGeometry relative="1" as="geometry">
            <mxPoint x="996.5" y="606" as="targetPoint" />
            <Array as="points">
              <mxPoint x="80" y="763" />
              <mxPoint x="80" y="132" />
            </Array>
          </mxGeometry>
        </mxCell>
        <mxCell id="QQjJts4zOjsXDl-x4-YD-49" value="&lt;p style=&quot;line-height: 100%;&quot;&gt;13、{墨鱼面、龙虾}{Taverna Scalinetto}&lt;/p&gt;" style="rounded=1;whiteSpace=wrap;html=1;sketch=1;curveFitting=1;jiggle=2;fillColor=#ffe6cc;strokeColor=#d79b00;fillStyle=auto;hachureGap=-1;sketchStyle=rough;treeFolding=0;treeMoving=0;enumerate=0;fontSize=16;align=center;fontFamily=霞鹜文楷等宽;" vertex="1" parent="1">
          <mxGeometry x="940" y="741" width="187" height="44" as="geometry" />
        </mxCell>
      </root>
    </mxGraphModel>
  </diagram>
</mxfile>
